<svg xmlns="http://www.w3.org/2000/svg" xmlns:xlink="http://www.w3.org/1999/xlink" xmlns:lucid="lucid" width="2449" height="1860"><g transform="translate(-680 -1020)" lucid:page-tab-id="0_0"><path d="M500 1000h4500v2000H500z" fill="#fff"/><path d="M2205.97 1560.5v9.9m0 9.9v19.77m0 9.9v19.78m0 9.9v19.78m0 9.9v19.78m0 9.9v19.8m0 9.9v19.77m0 9.9v19.78m0 9.9v19.78m0 9.9v19.78m0 9.9v19.8m0 9.88v19.8m0 9.88v19.8m0 9.88v19.8m0 9.88v19.8m0 9.88v19.8m0 9.88v19.8m0 9.88v19.8m0 9.88v19.8m0 9.88v19.8m0 9.88v19.8m0 9.88v19.8m0 9.88v19.8m0 9.88v19.8m0 9.88v19.8m0 9.88v19.8m0 9.88v19.8m0 9.88v19.8m0 9.88v19.8m0 9.88v19.8m0 9.88v19.8m0 9.88v19.8m0 9.88v9.9a1.74 1.74 0 0 1-1.75 1.74 1.74 1.74 0 0 0-1.74 1.74v7.63m0 7.63v15.25m0 7.62v7.63" stroke="#333" fill="none"/><path d="M2206.44 1560.5h-.95v-.5h.94z" stroke="#333" stroke-width=".05" fill="#333"/><path d="M2202.48 2559.5v.5M943.6 1441.5v10.15m0 10.15v20.3m0 10.16v20.3m0 10.16v20.3m0 10.16v20.3m0 10.16v20.3m0 10.15v20.3m0 10.15v20.3m0 10.16v20.32m0 10.15v20.3m0 10.16v20.3m0 10.15v20.3m0 10.16v20.3m0 10.16v20.3m0 10.16v20.3m0 10.16v20.3m0 10.15v20.3m0 10.16v20.3m0 10.16v20.3m0 10.15v20.3m0 10.16v20.3m0 10.16v20.3m0 10.16v20.3m0 10.16v20.3m0 10.16v20.3m0 10.16v20.3m0 10.16v20.3m0 10.15v20.32m0 10.15v20.3m0 10.16v20.3m0 10.16v20.3m0 10.14v10.16" stroke="#333" fill="none"/><path d="M944.06 1441.5h-.95v-.5h.96z" stroke="#333" stroke-width=".05" fill="#333"/><path d="M943.6 2385.7v.5" stroke="#333" fill="none"/><path d="M924.66 1586.9a8 8 0 0 1 8-8h24a8 8 0 0 1 8 8v940a8 8 0 0 1-8 8h-24a8 8 0 0 1-8-8z" stroke="#f2f2f2" fill="#ced4db"/><path d="M1105.54 1450.4v2.85a1.16 1.16 0 0 0 1.16 1.16 1.16 1.16 0 0 1 1.16 1.17v2.84M1105.54 1450.42v-.5M1107.86 1458.4v.5M2560.2 1440.5v10.2m0 10.2v20.4m0 10.2v20.4m0 10.2v20.4m0 10.2v20.4m0 10.2v20.4m0 10.2v20.4m0 10.2v20.4m0 10.2v20.4m0 10.2v20.4m0 10.2v20.4m0 10.2v20.4m0 10.2v20.4m0 10.2v20.4m0 10.2v20.4m0 10.2v20.4m0 10.2v20.4m0 10.2v20.4m0 10.2v20.4m0 10.2v20.4m0 10.2v20.4m0 10.2v20.4m0 10.2v20.4m0 10.2v20.4m0 10.2v20.4m0 10.2v20.4m0 10.2v20.4m0 10.2v20.4m0 10.2v20.4m0 10.2v20.4m0 10.2v20.4m0 10.2v20.4m0 10.2v20.4m0 10.2v20.4m0 10.2v10.2" stroke="#333" fill="none"/><path d="M2560.68 1440.5h-.95v-.5h.95z" stroke="#333" stroke-width=".05" fill="#333"/><path d="M2560.2 2480.9v.5" stroke="#333" fill="none"/><path d="M2535.04 1583.87a8 8 0 0 1 8-8h24a8 8 0 0 1 8 8v944a8 8 0 0 1-8 8h-24a8 8 0 0 1-8-8z" stroke="#f2f2f2" fill="#b1d5b4"/><path d="M751.8 1128a8 8 0 0 1 8-8h367.56a8 8 0 0 1 8 8v305a8 8 0 0 1-8 8H759.8a8 8 0 0 1-8-8z" stroke="#000" stroke-opacity="0" fill="#008a0e"/><use xlink:href="#a" transform="matrix(1,0,0,1,759.8142080592847,1128) translate(35.209876543210015 132.05555555555557)"/><use xlink:href="#b" transform="matrix(1,0,0,1,759.8142080592847,1128) translate(28.182098765432244 193.38888888888886)"/><path d="M2368.43 1128a8 8 0 0 1 8-8h367.54a8 8 0 0 1 8 8v304a8 8 0 0 1-8 8h-367.54a8 8 0 0 1-8-8z" stroke="#000" stroke-opacity="0" fill="#008a0e"/><use xlink:href="#c" transform="matrix(1,0,0,1,2376.425761576063,1128) translate(5.537037037037209 100.88888888888893)"/><use xlink:href="#d" transform="matrix(1,0,0,1,2376.425761576063,1128) translate(76.38271604938282 162.22222222222223)"/><use xlink:href="#e" transform="matrix(1,0,0,1,2376.425761576063,1128) translate(111.8765432098766 223.5555555555555)"/><path d="M1278.87 1704.08h-312.7v-1.95h312.7zm882.5 0h-670.12v-1.95h670.12z" stroke="#3a414a" stroke-width=".05" fill="#3a414a"/><path d="M966.2 1704.08h-1.04v-1.95h1.03z" fill="#3a414a"/><path stroke="#3a414a" stroke-width=".05" fill="#3a414a"/><path d="M2176.64 1703.1l-14.27 4.64v-9.27z" fill="#3a414a"/><path d="M2179.8 1703.1l-18.4 5.98v-11.95zm-16.45 3.3l10.13-3.3-10.13-3.3z" stroke="#3a414a" stroke-width=".05" fill="#3a414a"/><use xlink:href="#f" transform="matrix(1,0,0,1,1278.8723270247517,1681.6355605375436) translate(0.0049999999999954525 28.622222222222213)"/><use xlink:href="#g" transform="matrix(1,0,0,1,1278.8723270247517,1681.6355605375436) translate(93.32537037037032 28.622222222222213)"/><path d="M2030.13 1488a8 8 0 0 1 8-8h335.67a8 8 0 0 1 8 8v64a8 8 0 0 1-8 8h-335.67a8 8 0 0 1-8-8z" stroke="#000" stroke-opacity="0" fill="#fff" fill-opacity="0"/><use xlink:href="#h" transform="matrix(1,0,0,1,2035.1310043668125,1485) translate(8.323456790123544 43.271527777777756)"/><use xlink:href="#i" transform="matrix(1,0,0,1,2035.1310043668125,1485) translate(164.51975308641974 43.271527777777756)"/><path d="M2075.57 2124a8 8 0 0 1 8-8h235.53a8 8 0 0 1 8 8v63.87a8 8 0 0 1-8 8h-235.53a8 8 0 0 1-8-8z" stroke="#000" stroke-opacity="0" fill="#fff" fill-opacity="0"/><use xlink:href="#j" transform="matrix(1,0,0,1,2080.57217081435,2121.0000999999993) translate(-7.264197530864095 43.04444444444444)"/><path d="M2180.38 1608a8 8 0 0 1 8-8h24a8 8 0 0 1 8 8v471.9a8 8 0 0 1-8 8h-24a8 8 0 0 1-8-8z" stroke="#f2f2f2" fill="#ced4db"/><path d="M1278.44 1879.78H966.16v-1.95h312.28zm882.93 0h-549.4v-1.95h549.4z" stroke="#3a414a" stroke-width=".05" fill="#3a414a"/><path d="M966.2 1879.78h-1.04v-1.95h1.03z" fill="#3a414a"/><path stroke="#3a414a" stroke-width=".05" fill="#3a414a"/><path d="M2176.64 1878.8l-14.27 4.63v-9.27z" fill="#3a414a"/><path d="M2179.8 1878.8l-18.4 5.98v-11.96zm-16.45 3.3l10.13-3.3-10.13-3.3z" stroke="#3a414a" stroke-width=".05" fill="#3a414a"/><use xlink:href="#k" transform="matrix(1,0,0,1,1278.4358024691355,1857.3333334931092) translate(0.0049999999999954525 28.622222222222213)"/><use xlink:href="#l" transform="matrix(1,0,0,1,1278.4358024691355,1857.3333334931092) translate(123.14018518518512 28.622222222222213)"/><path d="M1282.14 1917.78H966.16v-1.95h315.98zm879.23 0h-545.1v-1.95h545.1z" stroke="#3a414a" stroke-width=".05" fill="#3a414a"/><path d="M966.2 1917.78h-1.04v-1.95h1.03z" fill="#3a414a"/><path stroke="#3a414a" stroke-width=".05" fill="#3a414a"/><path d="M2176.64 1916.8l-14.27 4.63v-9.27z" fill="#3a414a"/><path d="M2179.8 1916.8l-18.4 5.98v-11.96zm-16.45 3.3l10.13-3.3-10.13-3.3z" stroke="#3a414a" stroke-width=".05" fill="#3a414a"/><use xlink:href="#m" transform="matrix(1,0,0,1,1282.1376543209876,1895.3333408101678) translate(0.0049999999999954525 28.622222222222213)"/><use xlink:href="#n" transform="matrix(1,0,0,1,1282.1376543209876,1895.3333408101678) translate(103.85993827160488 28.622222222222213)"/><path d="M2161.37 1947.9H1572.1v-1.94h589.27z" stroke="#3a414a" stroke-width=".05" fill="#3a414a"/><path stroke="#3a414a" stroke-width=".05" fill="#3a414a"/><path d="M2176.64 1946.93l-14.27 4.64v-9.27z" fill="#3a414a"/><path d="M2179.8 1946.93l-18.4 5.98v-11.94zm-16.45 3.3l10.13-3.3-10.13-3.3zM1278.32 1991.78H966.16v-1.95h312.16zm883.05 0h-587.3v-1.95h587.3z" stroke="#3a414a" stroke-width=".05" fill="#3a414a"/><path d="M966.2 1991.78h-1.04v-1.95h1.03z" fill="#3a414a"/><path stroke="#3a414a" stroke-width=".05" fill="#3a414a"/><path d="M2176.64 1990.8l-14.27 4.63v-9.27z" fill="#3a414a"/><path d="M2179.8 1990.8l-18.4 5.98v-11.96zm-16.45 3.3l10.14-3.3-10.15-3.3z" stroke="#3a414a" stroke-width=".05" fill="#3a414a"/><use xlink:href="#o" transform="matrix(1,0,0,1,1278.3185185185184,1969.3333347125792) translate(0.0049999999999954525 28.622222222222213)"/><use xlink:href="#l" transform="matrix(1,0,0,1,1278.3185185185184,1969.3333347125792) translate(85.3747530864197 28.622222222222213)"/><path d="M725.93 1964.62h-20.9l-.66.05-.6.15-.6.24-.53.33-.48.4-.4.48-.34.54-.25.58-.14.62-.05.66v625.2l.05.66.14.62.25.58.33.54.4.48.5.4.52.34.6.24.6.14.67.06h1023.53v1.95H704.97l-.9-.08-.92-.22-.86-.36-.8-.5-.73-.6-.6-.7-.5-.8-.35-.88-.22-.9-.08-.9V1968.6l.08-.9.22-.9.35-.87.5-.8.6-.7.72-.62.8-.48.85-.36.92-.22.9-.07h20.96zm2200-4.92l.92.2.86.37.8.5.73.6.6.72.5.8.36.85.2.9.07.9v628.4l-.07.9-.22.9-.35.88-.5.8-.6.7-.72.62-.8.5-.85.35-.9.22-.9.07H1874.12v-1.96h1050.83l.67-.06.6-.14.6-.24.53-.33.48-.4.4-.5.34-.53.24-.58.15-.62.06-.67v-628.23l-.06-.67-.14-.6-.25-.6-.33-.53-.4-.48-.5-.4-.52-.34-.6-.24-.6-.15-.67-.06h-138.18v-1.94h138.26zm-2020.27 4.92h-34.18v-1.95h34.18zm1670.88-3.04v-1.95h64.68v1.94z" stroke="#333" stroke-width=".05" fill="#333"/><path d="M2576.56 1961.58h-1.02v-1.95h1.02z" fill="#333"/><path stroke="#333" stroke-width=".05" fill="#333"/><path d="M920.93 1963.64l-14.27 4.64V1959z" fill="#333"/><path d="M924.08 1963.64l-18.4 5.98v-11.95zm-16.45 3.3l10.14-3.3-10.13-3.3z" stroke="#333" stroke-width=".05" fill="#333"/><use xlink:href="#p" transform="matrix(1,0,0,1,2641.222222222222,1933.9334027064972) translate(0.0049999999999954525 35.55555555555555)"/><use xlink:href="#q" transform="matrix(1,0,0,1,725.9272781735827,1936.9786350190445) translate(0.0049999999999954525 35.55555555555554)"/><use xlink:href="#q" transform="matrix(1,0,0,1,1728.5735650958613,2572.245185827801) translate(0.0049999999999954525 35.55555555555554)"/><use xlink:href="#r" transform="matrix(1,0,0,1,2637.456790123457,1964.6000693731637) translate(0 31.99999999999999)"/><use xlink:href="#s" transform="matrix(1,0,0,1,2637.456790123457,1964.6000693731637) translate(0 76.44444444444443)"/><use xlink:href="#t" transform="matrix(1,0,0,1,2637.456790123457,1964.6000693731637) translate(0 119.11111111111109)"/><use xlink:href="#u" transform="matrix(1,0,0,1,2637.456790123457,1964.6000693731637) translate(0 161.77777777777774)"/><use xlink:href="#v" transform="matrix(1,0,0,1,2637.456790123457,1964.6000693731637) translate(114.96296296296292 161.77777777777774)"/><use xlink:href="#u" transform="matrix(1,0,0,1,2637.456790123457,1964.6000693731637) translate(0 204.4444444444444)"/><use xlink:href="#w" transform="matrix(1,0,0,1,2637.456790123457,1964.6000693731637) translate(114.96296296296292 204.4444444444444)"/><use xlink:href="#u" transform="matrix(1,0,0,1,2637.456790123457,1964.6000693731637) translate(0 247.11111111111106)"/><use xlink:href="#x" transform="matrix(1,0,0,1,2637.456790123457,1964.6000693731637) translate(114.96296296296292 247.11111111111106)"/><use xlink:href="#y" transform="matrix(1,0,0,1,2637.456790123457,1964.6000693731637) translate(0 289.7777777777777)"/><use xlink:href="#z" transform="matrix(1,0,0,1,2637.456790123457,1964.6000693731637) translate(143.90123456790118 289.7777777777777)"/><use xlink:href="#A" transform="matrix(1,0,0,1,2637.456790123457,1964.6000693731637) translate(0 332.44444444444434)"/><use xlink:href="#B" transform="matrix(1,0,0,1,2637.456790123457,1964.6000693731637) translate(0 375.111111111111)"/><use xlink:href="#C" transform="matrix(1,0,0,1,2637.456790123457,1964.6000693731637) translate(0 417.7777777777776)"/><use xlink:href="#D" transform="matrix(1,0,0,1,2637.456790123457,1964.6000693731637) translate(86.71604938271602 417.7777777777776)"/><use xlink:href="#E" transform="matrix(1,0,0,1,2637.456790123457,1964.6000693731637) translate(0 460.44444444444423)"/><path d="M2272.9 1876.97h-51.02v-1.94h51.02zm243.13 0h-84.8v-1.94h84.8z" stroke="#3a414a" stroke-width=".05" fill="#3a414a"/><path d="M2221.9 1876.97h-1.02v-1.94h1.02z" fill="#3a414a"/><path stroke="#3a414a" stroke-width=".05" fill="#3a414a"/><path d="M2531.3 1876l-14.27 4.63v-9.27z" fill="#3a414a"/><path d="M2534.46 1876l-18.4 5.98v-11.96zm-16.45 3.3l10.14-3.3-10.13-3.3z" stroke="#3a414a" stroke-width=".05" fill="#3a414a"/><use xlink:href="#F" transform="matrix(1,0,0,1,2272.898884235699,1851.866777365943) translate(0.0049999999999954525 32.177777777777756)"/><path d="M2180.38 1608a8 8 0 0 1 8-8h24a8 8 0 0 1 8 8v484a8 8 0 0 1-8 8h-24a8 8 0 0 1-8-8z" stroke="#f2f2f2" fill="#b1d5b4"/><path d="M2259.96 2275.06h-36.94v-1.95h36.94zm256.07 0h-19.43v-1.95h19.43z" stroke="#3a414a" stroke-width=".05" fill="#3a414a"/><path d="M2223.04 2275.06h-1.02v-1.95h1.02z" fill="#3a414a"/><path stroke="#3a414a" stroke-width=".05" fill="#3a414a"/><path d="M2531.3 2274.1l-14.27 4.62v-9.27z" fill="#3a414a"/><path d="M2534.46 2274.1l-18.4 5.97v-11.96zm-16.45 3.28l10.14-3.3-10.13-3.28z" stroke="#3a414a" stroke-width=".05" fill="#3a414a"/><use xlink:href="#G" transform="matrix(1,0,0,1,2259.957030053877,2249.9557756627773) translate(0.0049999999999954525 32.17777777777774)"/><path d="M1279.5 1663.08H966.15v-1.95h313.33zm881.87 0h-627.75v-1.95h627.75z" stroke="#3a414a" stroke-width=".05" fill="#3a414a"/><path d="M966.2 1663.08h-1.04v-1.95h1.03z" fill="#3a414a"/><path stroke="#3a414a" stroke-width=".05" fill="#3a414a"/><path d="M2176.64 1662.1l-14.27 4.64v-9.27z" fill="#3a414a"/><path d="M2179.8 1662.1l-18.4 5.98v-11.95zm-16.45 3.3l10.13-3.3-10.13-3.3z" stroke="#3a414a" stroke-width=".05" fill="#3a414a"/><use xlink:href="#f" transform="matrix(1,0,0,1,1279.4948556784827,1640.635772816348) translate(0.0049999999999954525 28.622222222222213)"/><use xlink:href="#H" transform="matrix(1,0,0,1,1279.4948556784827,1640.635772816348) translate(93.32537037037032 28.622222222222213)"/><path d="M1278.48 1622.43H966.16v-1.95h312.32zm882.9 0h-620.82v-1.95h620.8z" stroke="#3a414a" stroke-width=".05" fill="#3a414a"/><path d="M966.2 1622.43h-1.04v-1.95h1.03z" fill="#3a414a"/><path stroke="#3a414a" stroke-width=".05" fill="#3a414a"/><path d="M2176.64 1621.46l-14.27 4.63v-9.28z" fill="#3a414a"/><path d="M2179.8 1621.46l-18.4 5.97v-11.95zm-16.45 3.3l10.13-3.3-10.13-3.3z" stroke="#3a414a" stroke-width=".05" fill="#3a414a"/><use xlink:href="#f" transform="matrix(1,0,0,1,1278.484084832935,1599.9910020382301) translate(0 28.622222222222213)"/><use xlink:href="#I" transform="matrix(1,0,0,1,1278.484084832935,1599.9910020382301) translate(93.32037037037033 28.622222222222213)"/><path d="M2181.52 2195.9a8 8 0 0 1 8-8h24a8 8 0 0 1 8 8V2532a8 8 0 0 1-8 8h-24a8 8 0 0 1-8-8zM924.66 1588a8 8 0 0 1 8-8h24a8 8 0 0 1 8 8v944a8 8 0 0 1-8 8h-24a8 8 0 0 1-8-8z" stroke="#f2f2f2" fill="#b1d5b4"/><path d="M1790.03 1946.16l1.98.47 1.9.78 1.73 1.08 1.55 1.32 1.32 1.55 1.06 1.74.78 1.87.48 1.98.15 2v434.8l.14 1.77.42 1.7.66 1.58.9 1.48 1.13 1.3 1.32 1.14 1.48.9 1.6.66 1.68.4 1.76.14h350.47v1.95h-350.54l-2-.15-1.97-.48-1.9-.78-1.73-1.06-1.55-1.32-1.32-1.55-1.06-1.74-.78-1.9-.48-1.97-.15-2v-434.8l-.14-1.78-.42-1.68-.66-1.6-.9-1.47-1.13-1.32-1.32-1.12-1.48-.9-1.6-.67-1.68-.4-1.76-.15H1572.1V1946h215.94zm-823.87 1.8V1946h312.15v1.95z" stroke="#3a414a" stroke-width=".05" fill="#3a414a"/><path d="M966.2 1947.95h-1.04V1946h1.03z" fill="#3a414a"/><path stroke="#3a414a" stroke-width=".05" fill="#3a414a"/><path d="M2177.78 2405.8l-14.27 4.63v-9.26z" fill="#3a414a"/><path d="M2180.94 2405.8l-18.4 5.98v-11.96zm-16.45 3.3l10.13-3.3-10.14-3.3z" stroke="#3a414a" stroke-width=".05" fill="#3a414a"/><use xlink:href="#J" transform="matrix(1,0,0,1,1278.3123456790122,1925.511242493871) translate(0.0049999999999954525 28.622222222222213)"/><use xlink:href="#l" transform="matrix(1,0,0,1,1278.3123456790122,1925.511242493871) translate(83.38709876543206 28.622222222222213)"/><path d="M1830.03 1915.88l1.98.47 1.9.78 1.73 1.07 1.55 1.32 1.32 1.55 1.06 1.74.78 1.9.48 1.97.15 2v417.1l.14 1.75.42 1.7.66 1.58.9 1.48 1.13 1.3 1.32 1.14 1.48.9 1.6.66 1.68.4 1.76.14h310.47v1.95h-310.54l-2-.15-1.97-.48-1.9-.78-1.73-1.06-1.55-1.32-1.32-1.55-1.06-1.74-.78-1.9-.48-1.97-.15-2v-417.1l-.14-1.76-.42-1.68-.66-1.6-.9-1.48-1.13-1.32-1.32-1.12-1.48-.9-1.6-.67-1.68-.4-1.76-.13h-211.7v-1.95h211.78zm-863.87 1.8v-1.96h315.98v1.95z" stroke="#3a414a" stroke-width=".05" fill="#3a414a"/><path d="M966.2 1917.67h-1.04v-1.95h1.03z" fill="#3a414a"/><path stroke="#3a414a" stroke-width=".05" fill="#3a414a"/><path d="M2177.78 2357.8l-14.27 4.63v-9.26z" fill="#3a414a"/><path d="M2180.94 2357.8l-18.4 5.98v-11.96zm-16.45 3.3l10.13-3.3-10.14-3.3zM1920.03 1702.28l1.98.48 1.9.78 1.73 1.06 1.55 1.33 1.32 1.54 1.06 1.74.78 1.9.48 1.97.15 2v552.7l.14 1.75.42 1.7.66 1.58.9 1.48 1.13 1.3 1.32 1.14 1.48.9 1.6.66 1.68.4 1.76.14h220.47v1.95h-220.54l-2-.15-1.97-.48-1.9-.78-1.73-1.06-1.55-1.32-1.32-1.55-1.06-1.74-.78-1.9-.48-1.97-.15-2v-552.7l-.14-1.75-.42-1.68-.66-1.6-.9-1.48-1.13-1.3-1.32-1.13-1.48-.92-1.6-.66-1.68-.4-1.76-.14h-426.7v-1.95h426.78zm-953.87 1.8v-1.95h312.7v1.95z" stroke="#3a414a" stroke-width=".05" fill="#3a414a"/><path d="M966.2 1704.08h-1.04v-1.95h1.03z" fill="#3a414a"/><path stroke="#3a414a" stroke-width=".05" fill="#3a414a"/><path d="M2177.78 2279.8l-14.27 4.63v-9.26z" fill="#3a414a"/><path d="M2180.94 2279.8l-18.4 5.98v-11.96zm-16.45 3.3l10.13-3.3-10.14-3.3zM1960.03 1661.52l1.98.47 1.9.77 1.73 1.07 1.55 1.32 1.32 1.55 1.06 1.74.78 1.9.48 1.97.15 2v553.13l.14 1.76.42 1.67.66 1.6.9 1.48 1.13 1.3 1.32 1.13 1.48.9 1.6.67 1.68.4 1.76.14h180.47v1.94h-180.54l-2-.16-1.97-.47-1.9-.77-1.73-1.06-1.55-1.33-1.32-1.55-1.06-1.74-.78-1.88-.48-1.98-.15-2v-553.13l-.14-1.76-.42-1.67-.66-1.6-.9-1.47-1.13-1.32-1.32-1.12-1.48-.9-1.6-.67-1.68-.4-1.76-.14h-424.34v-1.94h424.42zm-993.87 1.8v-1.96h313.33v1.95z" stroke="#3a414a" stroke-width=".05" fill="#3a414a"/><path d="M966.2 1663.3h-1.04v-1.94h1.03z" fill="#3a414a"/><path stroke="#3a414a" stroke-width=".05" fill="#3a414a"/><path d="M2177.78 2239.47l-14.27 4.63v-9.27z" fill="#3a414a"/><path d="M2180.94 2239.47l-18.4 5.97v-11.95zm-16.45 3.3l10.13-3.3-10.14-3.3zM2000.03 1620.64l1.98.47 1.9.8 1.73 1.06 1.55 1.32 1.32 1.55 1.06 1.74.78 1.88.48 1.98.15 2v553.73l.14 1.76.42 1.7.66 1.58.9 1.48 1.13 1.3 1.32 1.14 1.48.9 1.6.66 1.68.4 1.76.14h140.47v1.96h-140.54l-2-.16-1.97-.48-1.9-.78-1.73-1.06-1.55-1.32-1.32-1.55-1.06-1.74-.78-1.9-.48-1.97-.15-2V1633.5l-.14-1.77-.42-1.68-.66-1.6-.9-1.47-1.13-1.32-1.32-1.12-1.48-.9-1.6-.67-1.68-.4-1.76-.14h-457.4v-1.95h457.48zm-1033.87 1.8v-1.96h312.32v1.95z" stroke="#3a414a" stroke-width=".05" fill="#3a414a"/><path d="M966.2 1622.43h-1.04v-1.95h1.03z" fill="#3a414a"/><path stroke="#3a414a" stroke-width=".05" fill="#3a414a"/><path d="M2177.78 2199.2l-14.27 4.64v-9.28z" fill="#3a414a"/><path d="M2180.94 2199.2l-18.4 5.98v-11.96zm-16.45 3.3l10.13-3.3-10.14-3.3zM1750.03 1989.97l1.98.47 1.9.78 1.73 1.07 1.55 1.3 1.32 1.56 1.06 1.74.78 1.88.48 1.98.15 2v439l.14 1.76.42 1.7.66 1.58.9 1.48 1.13 1.3 1.32 1.14 1.48.9 1.6.66 1.68.4 1.76.14h390.47v1.95h-390.54l-2-.15-1.97-.48-1.9-.78-1.73-1.06-1.55-1.32-1.32-1.55-1.06-1.74-.78-1.9-.48-1.97-.15-2v-439l-.14-1.77-.42-1.68-.66-1.6-.9-1.47-1.13-1.3-1.32-1.13-1.48-.9-1.6-.66-1.68-.4-1.76-.14h-173.88v-1.95h173.96zm-783.87 1.8v-1.96h312.16v1.96z" stroke="#3a414a" stroke-width=".05" fill="#3a414a"/><path d="M966.2 1991.76h-1.04v-1.95h1.03z" fill="#3a414a"/><path stroke="#3a414a" stroke-width=".05" fill="#3a414a"/><path d="M2177.78 2453.8l-14.27 4.63v-9.26z" fill="#3a414a"/><path d="M2180.94 2453.8l-18.4 5.98v-11.96zm-16.45 3.3l10.13-3.3-10.14-3.3z" stroke="#3a414a" stroke-width=".05" fill="#3a414a"/><path d="M1278.96 2519.02h-312.8v-1.95h312.8zm883.55 0h-420.13v-1.95h420.14z" stroke="#333" stroke-width=".05" fill="#333"/><path d="M966.2 2519.02h-1.04v-1.95h1.03z" fill="#333"/><path stroke="#333" stroke-width=".05" fill="#333"/><path d="M2177.78 2518.04l-14.27 4.64v-9.27z" fill="#333"/><path d="M2180.94 2518.04l-18.4 5.98v-11.95zm-16.45 3.3l10.13-3.3-10.14-3.3z" stroke="#333" stroke-width=".05" fill="#333"/><g><use xlink:href="#K" transform="matrix(1,0,0,1,1278.9629629629633,2496.709856725786) translate(0.0049999999999954525 28.444444444444436)"/><use xlink:href="#L" transform="matrix(1,0,0,1,1278.9629629629633,2496.709856725786) translate(87.31364197530861 28.444444444444436)"/><use xlink:href="#M" transform="matrix(1,0,0,1,1278.9629629629633,2496.709856725786) translate(197.73339506172834 28.444444444444436)"/><use xlink:href="#N" transform="matrix(1,0,0,1,1278.9629629629633,2496.709856725786) translate(329.98030864197517 28.444444444444436)"/></g><defs><path fill="#fff" d="M67-125c0 54 23 88 75 88 28 0 53-7 68-21v-34h-60v-39h108v91C232-14 192 4 140 4 58 4 20-42 15-125 8-236 126-280 215-234c19 10 29 26 37 47l-47 15c-11-23-29-39-63-39-53 1-75 33-75 86" id="O"/><path fill="#fff" d="M135-150c-39-12-60 13-60 57V0H25l-1-190h47c2 13-1 29 3 40 6-28 27-53 61-41v41" id="P"/><path fill="#fff" d="M185-48c-13 30-37 53-82 52C43 2 14-33 14-96s30-98 90-98c62 0 83 45 84 108H66c0 31 8 55 39 56 18 0 30-7 34-22zm-45-69c5-46-57-63-70-21-2 6-4 13-4 21h74" id="Q"/><path fill="#fff" d="M135-194c87-1 58 113 63 194h-50c-7-57 23-157-34-157-59 0-34 97-39 157H25l-1-190h47c2 12-1 28 3 38 12-26 28-41 61-42" id="R"/><path fill="#fff" d="M114-157C55-157 80-60 75 0H25v-261h50l-1 109c12-26 28-41 61-42 86-1 58 113 63 194h-50c-7-57 23-157-34-157" id="S"/><path fill="#fff" d="M110-194c64 0 96 36 96 99 0 64-35 99-97 99-61 0-95-36-95-99 0-62 34-99 96-99zm-1 164c35 0 45-28 45-65 0-40-10-65-43-65-34 0-45 26-45 65 0 36 10 65 43 65" id="T"/><path fill="#fff" d="M85 4C-2 5 27-109 22-190h50c7 57-23 150 33 157 60-5 35-97 40-157h50l1 190h-47c-2-12 1-28-3-38-12 25-28 42-61 42" id="U"/><path fill="#fff" d="M137-138c1-29-70-34-71-4 15 46 118 7 119 86 1 83-164 76-172 9l43-7c4 19 20 25 44 25 33 8 57-30 24-41C81-84 22-81 20-136c-2-80 154-74 161-7" id="V"/><g id="a"><use transform="matrix(0.1419753086419752,0,0,0.1419753086419752,0,0)" xlink:href="#O"/><use transform="matrix(0.1419753086419752,0,0,0.1419753086419752,39.75308641975305,0)" xlink:href="#P"/><use transform="matrix(0.1419753086419752,0,0,0.1419753086419752,59.62962962962958,0)" xlink:href="#Q"/><use transform="matrix(0.1419753086419752,0,0,0.1419753086419752,88.02469135802461,0)" xlink:href="#Q"/><use transform="matrix(0.1419753086419752,0,0,0.1419753086419752,116.41975308641963,0)" xlink:href="#R"/><use transform="matrix(0.1419753086419752,0,0,0.1419753086419752,147.5123456790122,0)" xlink:href="#S"/><use transform="matrix(0.1419753086419752,0,0,0.1419753086419752,178.6049382716048,0)" xlink:href="#T"/><use transform="matrix(0.1419753086419752,0,0,0.1419753086419752,209.69753086419735,0)" xlink:href="#U"/><use transform="matrix(0.1419753086419752,0,0,0.1419753086419752,240.7901234567899,0)" xlink:href="#V"/><use transform="matrix(0.1419753086419752,0,0,0.1419753086419752,269.18518518518493,0)" xlink:href="#Q"/></g><path fill="#fff" d="M24 0v-248h195v40H76v63h132v40H76v65h150V0H24" id="W"/><path fill="#fff" d="M128 0H69L1-190h53L99-40l48-150h52" id="X"/><path fill="#fff" d="M25-224v-37h50v37H25zM25 0v-190h50V0H25" id="Y"/><path fill="#fff" d="M220-157c-53 9-28 100-34 157h-49v-107c1-27-5-49-29-50C55-147 81-57 75 0H25l-1-190h47c2 12-1 28 3 38 10-53 101-56 108 0 13-22 24-43 59-42 82 1 51 116 57 194h-49v-107c-1-25-5-48-29-50" id="Z"/><path fill="#fff" d="M115-3C79 11 28 4 28-45v-112H4v-33h27l15-45h31v45h36v33H77v99c-1 23 16 31 38 25v30" id="aa"/><g id="b"><use transform="matrix(0.1419753086419752,0,0,0.1419753086419752,0,0)" xlink:href="#W"/><use transform="matrix(0.1419753086419752,0,0,0.1419753086419752,34.07407407407405,0)" xlink:href="#R"/><use transform="matrix(0.1419753086419752,0,0,0.1419753086419752,65.16666666666661,0)" xlink:href="#X"/><use transform="matrix(0.1419753086419752,0,0,0.1419753086419752,93.56172839506165,0)" xlink:href="#Y"/><use transform="matrix(0.1419753086419752,0,0,0.1419753086419752,107.75925925925917,0)" xlink:href="#P"/><use transform="matrix(0.1419753086419752,0,0,0.1419753086419752,127.6358024691357,0)" xlink:href="#T"/><use transform="matrix(0.1419753086419752,0,0,0.1419753086419752,158.72839506172826,0)" xlink:href="#R"/><use transform="matrix(0.1419753086419752,0,0,0.1419753086419752,189.82098765432087,0)" xlink:href="#Z"/><use transform="matrix(0.1419753086419752,0,0,0.1419753086419752,235.2530864197529,0)" xlink:href="#Q"/><use transform="matrix(0.1419753086419752,0,0,0.1419753086419752,263.6481481481479,0)" xlink:href="#R"/><use transform="matrix(0.1419753086419752,0,0,0.1419753086419752,294.7407407407405,0)" xlink:href="#aa"/></g><path fill="#fff" d="M240-174c0 40-23 61-54 70L253 0h-59l-57-94H76V0H24v-248c93 4 217-23 216 74zM76-134c48-2 112 12 112-38 0-48-66-32-112-35v73" id="ab"/><path fill="#fff" d="M121-226c-27-7-43 5-38 36h38v33H83V0H34v-157H6v-33h28c-9-59 32-81 87-68v32" id="ac"/><path fill="#fff" d="M190-63c-7 42-38 67-86 67-59 0-84-38-90-98-12-110 154-137 174-36l-49 2c-2-19-15-32-35-32-30 0-35 28-38 64-6 74 65 87 74 30" id="ad"/><g id="c"><use transform="matrix(0.1419753086419752,0,0,0.1419753086419752,0,0)" xlink:href="#ab"/><use transform="matrix(0.1419753086419752,0,0,0.1419753086419752,36.77160493827157,0)" xlink:href="#Q"/><use transform="matrix(0.1419753086419752,0,0,0.1419753086419752,65.16666666666661,0)" xlink:href="#Y"/><use transform="matrix(0.1419753086419752,0,0,0.1419753086419752,79.36419753086413,0)" xlink:href="#R"/><use transform="matrix(0.1419753086419752,0,0,0.1419753086419752,110.4567901234567,0)" xlink:href="#ac"/><use transform="matrix(0.1419753086419752,0,0,0.1419753086419752,127.35185185185175,0)" xlink:href="#T"/><use transform="matrix(0.1419753086419752,0,0,0.1419753086419752,158.44444444444431,0)" xlink:href="#P"/><use transform="matrix(0.1419753086419752,0,0,0.1419753086419752,178.32098765432085,0)" xlink:href="#ad"/><use transform="matrix(0.1419753086419752,0,0,0.1419753086419752,206.71604938271588,0)" xlink:href="#Q"/><use transform="matrix(0.1419753086419752,0,0,0.1419753086419752,235.11111111111092,0)" xlink:href="#Z"/><use transform="matrix(0.1419753086419752,0,0,0.1419753086419752,280.54320987654296,0)" xlink:href="#Q"/><use transform="matrix(0.1419753086419752,0,0,0.1419753086419752,308.938271604938,0)" xlink:href="#R"/><use transform="matrix(0.1419753086419752,0,0,0.1419753086419752,340.0308641975306,0)" xlink:href="#aa"/></g><path fill="#fff" d="M24 0v-248h52v208h133V0H24" id="ae"/><path fill="#fff" d="M133-34C117-15 103 5 69 4 32 3 11-16 11-54c-1-60 55-63 116-61 1-26-3-47-28-47-18 1-26 9-28 27l-52-2c7-38 36-58 82-57s74 22 75 68l1 82c-1 14 12 18 25 15v27c-30 8-71 5-69-32zm-48 3c29 0 43-24 42-57-32 0-66-3-65 30 0 17 8 27 23 27" id="af"/><path fill="#fff" d="M195-6C206 82 75 100 31 46c-4-6-6-13-8-21l49-6c3 16 16 24 34 25 40 0 42-37 40-79-11 22-30 35-61 35-53 0-70-43-70-97 0-56 18-96 73-97 30 0 46 14 59 34l2-30h47zm-90-29c32 0 41-27 41-63 0-35-9-62-40-62-32 0-39 29-40 63 0 36 9 62 39 62" id="ag"/><g id="d"><use transform="matrix(0.1419753086419752,0,0,0.1419753086419752,0,0)" xlink:href="#ae"/><use transform="matrix(0.1419753086419752,0,0,0.1419753086419752,31.092592592592567,0)" xlink:href="#Q"/><use transform="matrix(0.1419753086419752,0,0,0.1419753086419752,59.4876543209876,0)" xlink:href="#af"/><use transform="matrix(0.1419753086419752,0,0,0.1419753086419752,87.88271604938264,0)" xlink:href="#P"/><use transform="matrix(0.1419753086419752,0,0,0.1419753086419752,107.75925925925917,0)" xlink:href="#R"/><use transform="matrix(0.1419753086419752,0,0,0.1419753086419752,138.85185185185173,0)" xlink:href="#Y"/><use transform="matrix(0.1419753086419752,0,0,0.1419753086419752,153.04938271604925,0)" xlink:href="#R"/><use transform="matrix(0.1419753086419752,0,0,0.1419753086419752,184.14197530864178,0)" xlink:href="#ag"/></g><path fill="#fff" d="M199 0l-22-63H83L61 0H9l90-248h61L250 0h-51zm-33-102l-36-108c-10 38-24 72-36 108h72" id="ah"/><g id="e"><use transform="matrix(0.1419753086419752,0,0,0.1419753086419752,0,0)" xlink:href="#ah"/><use transform="matrix(0.1419753086419752,0,0,0.1419753086419752,36.77160493827157,0)" xlink:href="#ag"/><use transform="matrix(0.1419753086419752,0,0,0.1419753086419752,67.86419753086415,0)" xlink:href="#Q"/><use transform="matrix(0.1419753086419752,0,0,0.1419753086419752,96.25925925925918,0)" xlink:href="#R"/><use transform="matrix(0.1419753086419752,0,0,0.1419753086419752,127.35185185185175,0)" xlink:href="#aa"/></g><path fill="#3a414a" d="M185-189c-5-48-123-54-124 2 14 75 158 14 163 119 3 78-121 87-175 55-17-10-28-26-33-46l33-7c5 56 141 63 141-1 0-78-155-14-162-118-5-82 145-84 179-34 5 7 8 16 11 25" id="ai"/><path fill="#3a414a" d="M59-47c-2 24 18 29 38 22v24C64 9 27 4 27-40v-127H5v-23h24l9-43h21v43h35v23H59v120" id="aj"/><path fill="#3a414a" d="M100-194c63 0 86 42 84 106H49c0 40 14 67 53 68 26 1 43-12 49-29l28 8c-11 28-37 45-77 45C44 4 14-33 15-96c1-61 26-98 85-98zm52 81c6-60-76-77-97-28-3 7-6 17-6 28h103" id="ak"/><path fill="#3a414a" d="M210-169c-67 3-38 105-44 169h-31v-121c0-29-5-50-35-48C34-165 62-65 56 0H25l-1-190h30c1 10-1 24 2 32 10-44 99-50 107 0 11-21 27-35 58-36 85-2 47 119 55 194h-31v-121c0-29-5-49-35-48" id="al"/><g id="f"><use transform="matrix(0.09938271604938267,0,0,0.09938271604938267,0,0)" xlink:href="#ai"/><use transform="matrix(0.09938271604938267,0,0,0.09938271604938267,23.85185185185184,0)" xlink:href="#aj"/><use transform="matrix(0.09938271604938267,0,0,0.09938271604938267,33.790123456790106,0)" xlink:href="#ak"/><use transform="matrix(0.09938271604938267,0,0,0.09938271604938267,53.66666666666664,0)" xlink:href="#al"/></g><path fill="#3a414a" d="M30-248c118-7 216 8 213 122C240-48 200 0 122 0H30v-248zM63-27c89 8 146-16 146-99s-60-101-146-95v194" id="am"/><path fill="#3a414a" d="M117-194c89-4 53 116 60 194h-32v-121c0-31-8-49-39-48C34-167 62-67 57 0H25l-1-190h30c1 10-1 24 2 32 11-22 29-35 61-36" id="an"/><path fill="#3a414a" d="M135-143c-3-34-86-38-87 0 15 53 115 12 119 90S17 21 10-45l28-5c4 36 97 45 98 0-10-56-113-15-118-90-4-57 82-63 122-42 12 7 21 19 24 35" id="ao"/><path fill="#3a414a" d="M24-231v-30h32v30H24zM24 0v-190h32V0H24" id="ap"/><path fill="#3a414a" d="M179-190L93 31C79 59 56 82 12 73V49c39 6 53-20 64-50L1-190h34L92-34l54-156h33" id="aq"/><g id="g"><use transform="matrix(0.09938271604938267,0,0,0.09938271604938267,0,0)" xlink:href="#am"/><use transform="matrix(0.09938271604938267,0,0,0.09938271604938267,25.740123456790112,0)" xlink:href="#ak"/><use transform="matrix(0.09938271604938267,0,0,0.09938271604938267,45.616666666666646,0)" xlink:href="#an"/><use transform="matrix(0.09938271604938267,0,0,0.09938271604938267,65.49320987654318,0)" xlink:href="#ao"/><use transform="matrix(0.09938271604938267,0,0,0.09938271604938267,83.38209876543206,0)" xlink:href="#ap"/><use transform="matrix(0.09938271604938267,0,0,0.09938271604938267,91.23333333333329,0)" xlink:href="#aj"/><use transform="matrix(0.09938271604938267,0,0,0.09938271604938267,101.17160493827156,0)" xlink:href="#aq"/></g><path fill="#3a414a" d="M240-174c0 40-23 61-54 70L253 0h-59l-57-94H76V0H24v-248c93 4 217-23 216 74zM76-134c48-2 112 12 112-38 0-48-66-32-112-35v73" id="ar"/><path fill="#3a414a" d="M185-48c-13 30-37 53-82 52C43 2 14-33 14-96s30-98 90-98c62 0 83 45 84 108H66c0 31 8 55 39 56 18 0 30-7 34-22zm-45-69c5-46-57-63-70-21-2 6-4 13-4 21h74" id="as"/><path fill="#3a414a" d="M231 0h-52l-39-155L100 0H48L-1-190h46L77-45c9-52 24-97 36-145h53l37 145 32-145h46" id="at"/><path fill="#3a414a" d="M133-34C117-15 103 5 69 4 32 3 11-16 11-54c-1-60 55-63 116-61 1-26-3-47-28-47-18 1-26 9-28 27l-52-2c7-38 36-58 82-57s74 22 75 68l1 82c-1 14 12 18 25 15v27c-30 8-71 5-69-32zm-48 3c29 0 43-24 42-57-32 0-66-3-65 30 0 17 8 27 23 27" id="au"/><path fill="#3a414a" d="M135-150c-39-12-60 13-60 57V0H25l-1-190h47c2 13-1 29 3 40 6-28 27-53 61-41v41" id="av"/><path fill="#3a414a" d="M88-194c31-1 46 15 58 34l-1-101h50l1 261h-48c-2-10 0-23-3-31C134-8 116 4 84 4 32 4 16-41 15-95c0-56 19-97 73-99zm17 164c33 0 40-30 41-66 1-37-9-64-41-64s-38 30-39 65c0 43 13 65 39 65" id="aw"/><g id="h"><use transform="matrix(0.11172839506172831,0,0,0.11172839506172831,0,0)" xlink:href="#ar"/><use transform="matrix(0.11172839506172831,0,0,0.11172839506172831,28.937654320987633,0)" xlink:href="#as"/><use transform="matrix(0.11172839506172831,0,0,0.11172839506172831,51.283333333333296,0)" xlink:href="#at"/><use transform="matrix(0.11172839506172831,0,0,0.11172839506172831,82.56728395061722,0)" xlink:href="#au"/><use transform="matrix(0.11172839506172831,0,0,0.11172839506172831,104.9129629629629,0)" xlink:href="#av"/><use transform="matrix(0.11172839506172831,0,0,0.11172839506172831,120.55493827160485,0)" xlink:href="#aw"/></g><path fill="#3a414a" d="M76-208v77h127v40H76V0H24v-248h183v40H76" id="ax"/><path fill="#3a414a" d="M85 4C-2 5 27-109 22-190h50c7 57-23 150 33 157 60-5 35-97 40-157h50l1 190h-47c-2-12 1-28-3-38-12 25-28 42-61 42" id="ay"/><path fill="#3a414a" d="M135-194c87-1 58 113 63 194h-50c-7-57 23-157-34-157-59 0-34 97-39 157H25l-1-190h47c2 12-1 28 3 38 12-26 28-41 61-42" id="az"/><path fill="#3a414a" d="M190-63c-7 42-38 67-86 67-59 0-84-38-90-98-12-110 154-137 174-36l-49 2c-2-19-15-32-35-32-30 0-35 28-38 64-6 74 65 87 74 30" id="aA"/><path fill="#3a414a" d="M115-3C79 11 28 4 28-45v-112H4v-33h27l15-45h31v45h36v33H77v99c-1 23 16 31 38 25v30" id="aB"/><path fill="#3a414a" d="M25-224v-37h50v37H25zM25 0v-190h50V0H25" id="aC"/><path fill="#3a414a" d="M110-194c64 0 96 36 96 99 0 64-35 99-97 99-61 0-95-36-95-99 0-62 34-99 96-99zm-1 164c35 0 45-28 45-65 0-40-10-65-43-65-34 0-45 26-45 65 0 36 10 65 43 65" id="aD"/><g id="i"><use transform="matrix(0.11172839506172831,0,0,0.11172839506172831,0,0)" xlink:href="#ax"/><use transform="matrix(0.11172839506172831,0,0,0.11172839506172831,24.4685185185185,0)" xlink:href="#ay"/><use transform="matrix(0.11172839506172831,0,0,0.11172839506172831,48.937037037037,0)" xlink:href="#az"/><use transform="matrix(0.11172839506172831,0,0,0.11172839506172831,73.40555555555551,0)" xlink:href="#aA"/><use transform="matrix(0.11172839506172831,0,0,0.11172839506172831,95.75123456790118,0)" xlink:href="#aB"/><use transform="matrix(0.11172839506172831,0,0,0.11172839506172831,109.04691358024685,0)" xlink:href="#aC"/><use transform="matrix(0.11172839506172831,0,0,0.11172839506172831,120.21975308641969,0)" xlink:href="#aD"/><use transform="matrix(0.11172839506172831,0,0,0.11172839506172831,144.6882716049382,0)" xlink:href="#az"/></g><path fill="#3a414a" d="M140-251c80 0 125 45 125 126S219 4 139 4C58 4 15-44 15-125s44-126 125-126zm-1 214c52 0 73-35 73-88 0-50-21-86-72-86-52 0-73 35-73 86s22 88 72 88" id="aE"/><path fill="#3a414a" d="M135-194c52 0 70 43 70 98 0 56-19 99-73 100-30 1-46-15-58-35L72 0H24l1-261h50v104c11-23 29-37 60-37zM114-30c31 0 40-27 40-66 0-37-7-63-39-63s-41 28-41 65c0 36 8 64 40 64" id="aF"/><path fill="#3a414a" d="M137-138c1-29-70-34-71-4 15 46 118 7 119 86 1 83-164 76-172 9l43-7c4 19 20 25 44 25 33 8 57-30 24-41C81-84 22-81 20-136c-2-80 154-74 161-7" id="aG"/><path fill="#3a414a" d="M128 0H69L1-190h53L99-40l48-150h52" id="aH"/><g id="j"><use transform="matrix(0.11172839506172831,0,0,0.11172839506172831,0,0)" xlink:href="#aE"/><use transform="matrix(0.11172839506172831,0,0,0.11172839506172831,31.283950617283928,0)" xlink:href="#aF"/><use transform="matrix(0.11172839506172831,0,0,0.11172839506172831,55.75246913580243,0)" xlink:href="#aG"/><use transform="matrix(0.11172839506172831,0,0,0.11172839506172831,78.09814814814808,0)" xlink:href="#as"/><use transform="matrix(0.11172839506172831,0,0,0.11172839506172831,100.44382716049375,0)" xlink:href="#av"/><use transform="matrix(0.11172839506172831,0,0,0.11172839506172831,116.08580246913571,0)" xlink:href="#aH"/><use transform="matrix(0.11172839506172831,0,0,0.11172839506172831,138.43148148148137,0)" xlink:href="#au"/><use transform="matrix(0.11172839506172831,0,0,0.11172839506172831,160.77716049382704,0)" xlink:href="#aB"/><use transform="matrix(0.11172839506172831,0,0,0.11172839506172831,174.0728395061727,0)" xlink:href="#aC"/><use transform="matrix(0.11172839506172831,0,0,0.11172839506172831,185.24567901234553,0)" xlink:href="#aD"/><use transform="matrix(0.11172839506172831,0,0,0.11172839506172831,209.71419753086403,0)" xlink:href="#az"/><use transform="matrix(0.11172839506172831,0,0,0.11172839506172831,234.18271604938255,0)" xlink:href="#aG"/></g><path fill="#3a414a" d="M30 0v-248h187v28H63v79h144v27H63v87h162V0H30" id="aI"/><path fill="#3a414a" d="M114-163C36-179 61-72 57 0H25l-1-190h30c1 12-1 29 2 39 6-27 23-49 58-41v29" id="aJ"/><path fill="#3a414a" d="M177-190C167-65 218 103 67 71c-23-6-38-20-44-43l32-5c15 47 100 32 89-28v-30C133-14 115 1 83 1 29 1 15-40 15-95c0-56 16-97 71-98 29-1 48 16 59 35 1-10 0-23 2-32h30zM94-22c36 0 50-32 50-73 0-42-14-75-50-75-39 0-46 34-46 75s6 73 46 73" id="aK"/><g id="k"><use transform="matrix(0.09938271604938267,0,0,0.09938271604938267,0,0)" xlink:href="#aI"/><use transform="matrix(0.09938271604938267,0,0,0.09938271604938267,23.85185185185184,0)" xlink:href="#an"/><use transform="matrix(0.09938271604938267,0,0,0.09938271604938267,43.72839506172838,0)" xlink:href="#ak"/><use transform="matrix(0.09938271604938267,0,0,0.09938271604938267,63.60493827160491,0)" xlink:href="#aJ"/><use transform="matrix(0.09938271604938267,0,0,0.09938271604938267,75.43148148148144,0)" xlink:href="#aK"/><use transform="matrix(0.09938271604938267,0,0,0.09938271604938267,95.30802469135797,0)" xlink:href="#aq"/></g><path fill="#3a414a" d="M212-179c-10-28-35-45-73-45-59 0-87 40-87 99 0 60 29 101 89 101 43 0 62-24 78-52l27 14C228-24 195 4 139 4 59 4 22-46 18-125c-6-104 99-153 187-111 19 9 31 26 39 46" id="aL"/><path fill="#3a414a" d="M100-194c62-1 85 37 85 99 1 63-27 99-86 99S16-35 15-95c0-66 28-99 85-99zM99-20c44 1 53-31 53-75 0-43-8-75-51-75s-53 32-53 75 10 74 51 75" id="aM"/><path fill="#3a414a" d="M84 4C-5 8 30-112 23-190h32v120c0 31 7 50 39 49 72-2 45-101 50-169h31l1 190h-30c-1-10 1-25-2-33-11 22-28 36-60 37" id="aN"/><path fill="#3a414a" d="M115-194c55 1 70 41 70 98S169 2 115 4C84 4 66-9 55-30l1 105H24l-1-265h31l2 30c10-21 28-34 59-34zm-8 174c40 0 45-34 45-75s-6-73-45-74c-42 0-51 32-51 76 0 43 10 73 51 73" id="aO"/><g id="l"><use transform="matrix(0.09938271604938267,0,0,0.09938271604938267,0,0)" xlink:href="#aL"/><use transform="matrix(0.09938271604938267,0,0,0.09938271604938267,25.740123456790112,0)" xlink:href="#aM"/><use transform="matrix(0.09938271604938267,0,0,0.09938271604938267,45.616666666666646,0)" xlink:href="#an"/><use transform="matrix(0.09938271604938267,0,0,0.09938271604938267,65.49320987654318,0)" xlink:href="#ao"/><use transform="matrix(0.09938271604938267,0,0,0.09938271604938267,83.38209876543206,0)" xlink:href="#aN"/><use transform="matrix(0.09938271604938267,0,0,0.09938271604938267,103.25864197530859,0)" xlink:href="#al"/><use transform="matrix(0.09938271604938267,0,0,0.09938271604938267,132.974074074074,0)" xlink:href="#aO"/><use transform="matrix(0.09938271604938267,0,0,0.09938271604938267,152.85061728395053,0)" xlink:href="#aj"/><use transform="matrix(0.09938271604938267,0,0,0.09938271604938267,162.7888888888888,0)" xlink:href="#ap"/><use transform="matrix(0.09938271604938267,0,0,0.09938271604938267,170.64012345679004,0)" xlink:href="#aM"/><use transform="matrix(0.09938271604938267,0,0,0.09938271604938267,190.51666666666657,0)" xlink:href="#an"/></g><path fill="#3a414a" d="M266 0h-40l-56-210L115 0H75L2-248h35L96-30l15-64 43-154h32l59 218 59-218h35" id="aP"/><path fill="#3a414a" d="M141-36C126-15 110 5 73 4 37 3 15-17 15-53c-1-64 63-63 125-63 3-35-9-54-41-54-24 1-41 7-42 31l-33-3c5-37 33-52 76-52 45 0 72 20 72 64v82c-1 20 7 32 28 27v20c-31 9-61-2-59-35zM48-53c0 20 12 33 32 33 41-3 63-29 60-74-43 2-92-5-92 41" id="aQ"/><g id="m"><use transform="matrix(0.09938271604938267,0,0,0.09938271604938267,0,0)" xlink:href="#aP"/><use transform="matrix(0.09938271604938267,0,0,0.09938271604938267,32.398765432098756,0)" xlink:href="#aQ"/><use transform="matrix(0.09938271604938267,0,0,0.09938271604938267,52.275308641975286,0)" xlink:href="#aj"/><use transform="matrix(0.09938271604938267,0,0,0.09938271604938267,62.21358024691355,0)" xlink:href="#ak"/><use transform="matrix(0.09938271604938267,0,0,0.09938271604938267,82.09012345679008,0)" xlink:href="#aJ"/></g><g id="n"><use transform="matrix(0.09938271604938267,0,0,0.09938271604938267,0,0)" xlink:href="#aL"/><use transform="matrix(0.09938271604938267,0,0,0.09938271604938267,25.740123456790112,0)" xlink:href="#aM"/><use transform="matrix(0.09938271604938267,0,0,0.09938271604938267,45.616666666666646,0)" xlink:href="#an"/><use transform="matrix(0.09938271604938267,0,0,0.09938271604938267,65.49320987654318,0)" xlink:href="#ao"/><use transform="matrix(0.09938271604938267,0,0,0.09938271604938267,83.38209876543206,0)" xlink:href="#aN"/><use transform="matrix(0.09938271604938267,0,0,0.09938271604938267,103.25864197530859,0)" xlink:href="#aN"/><use transform="matrix(0.09938271604938267,0,0,0.09938271604938267,123.13518518518511,0)" xlink:href="#al"/><use transform="matrix(0.09938271604938267,0,0,0.09938271604938267,152.85061728395056,0)" xlink:href="#aO"/><use transform="matrix(0.09938271604938267,0,0,0.09938271604938267,172.72716049382709,0)" xlink:href="#aj"/><use transform="matrix(0.09938271604938267,0,0,0.09938271604938267,182.66543209876536,0)" xlink:href="#ap"/><use transform="matrix(0.09938271604938267,0,0,0.09938271604938267,190.5166666666666,0)" xlink:href="#aM"/><use transform="matrix(0.09938271604938267,0,0,0.09938271604938267,210.39320987654312,0)" xlink:href="#an"/></g><path fill="#3a414a" d="M197 0v-115H63V0H30v-248h33v105h134v-105h34V0h-34" id="aR"/><g id="o"><use transform="matrix(0.09938271604938267,0,0,0.09938271604938267,0,0)" xlink:href="#aR"/><use transform="matrix(0.09938271604938267,0,0,0.09938271604938267,25.740123456790112,0)" xlink:href="#ak"/><use transform="matrix(0.09938271604938267,0,0,0.09938271604938267,45.616666666666646,0)" xlink:href="#aQ"/><use transform="matrix(0.09938271604938267,0,0,0.09938271604938267,65.49320987654318,0)" xlink:href="#aj"/></g><path fill="#3a414a" d="M205 0l-28-72H64L36 0H1l101-248h38L239 0h-34zm-38-99l-47-123c-12 45-31 82-46 123h93" id="aS"/><path fill="#3a414a" d="M96-169c-40 0-48 33-48 73s9 75 48 75c24 0 41-14 43-38l32 2c-6 37-31 61-74 61-59 0-76-41-82-99-10-93 101-131 147-64 4 7 5 14 7 22l-32 3c-4-21-16-35-41-35" id="aT"/><g id="p"><use transform="matrix(0.12345679012345677,0,0,0.12345679012345677,0,0)" xlink:href="#aS"/><use transform="matrix(0.12345679012345677,0,0,0.12345679012345677,29.629629629629626,0)" xlink:href="#aT"/><use transform="matrix(0.12345679012345677,0,0,0.12345679012345677,51.85185185185185,0)" xlink:href="#aj"/><use transform="matrix(0.12345679012345677,0,0,0.12345679012345677,64.19753086419752,0)" xlink:href="#ap"/><use transform="matrix(0.12345679012345677,0,0,0.12345679012345677,73.9506172839506,0)" xlink:href="#aM"/><use transform="matrix(0.12345679012345677,0,0,0.12345679012345677,98.64197530864196,0)" xlink:href="#an"/><use transform="matrix(0.12345679012345677,0,0,0.12345679012345677,123.33333333333331,0)" xlink:href="#ao"/></g><g id="q"><use transform="matrix(0.12345679012345674,0,0,0.12345679012345674,0,0)" xlink:href="#aS"/><use transform="matrix(0.12345679012345674,0,0,0.12345679012345674,29.62962962962962,0)" xlink:href="#aT"/><use transform="matrix(0.12345679012345674,0,0,0.12345679012345674,51.85185185185183,0)" xlink:href="#aj"/><use transform="matrix(0.12345679012345674,0,0,0.12345679012345674,64.1975308641975,0)" xlink:href="#ap"/><use transform="matrix(0.12345679012345674,0,0,0.12345679012345674,73.95061728395058,0)" xlink:href="#aM"/><use transform="matrix(0.12345679012345674,0,0,0.12345679012345674,98.64197530864192,0)" xlink:href="#an"/><use transform="matrix(0.12345679012345674,0,0,0.12345679012345674,123.33333333333326,0)" xlink:href="#ao"/></g><path fill="#3a414a" d="M16-82v-28h88v28H16" id="aU"/><path fill="#3a414a" d="M137 0h-34L2-248h35l83 218 83-218h36" id="aV"/><path fill="#3a414a" d="M24 0v-261h32V0H24" id="aW"/><g id="s"><use transform="matrix(0.0987654320987654,0,0,0.0987654320987654,0,0)" xlink:href="#aU"/><use transform="matrix(0.0987654320987654,0,0,0.0987654320987654,11.753086419753082,0)" xlink:href="#aV"/><use transform="matrix(0.0987654320987654,0,0,0.0987654320987654,33.48148148148147,0)" xlink:href="#ak"/><use transform="matrix(0.0987654320987654,0,0,0.0987654320987654,53.23456790123454,0)" xlink:href="#an"/><use transform="matrix(0.0987654320987654,0,0,0.0987654320987654,72.98765432098762,0)" xlink:href="#aj"/><use transform="matrix(0.0987654320987654,0,0,0.0987654320987654,82.86419753086416,0)" xlink:href="#ap"/><use transform="matrix(0.0987654320987654,0,0,0.0987654320987654,90.66666666666663,0)" xlink:href="#aW"/><use transform="matrix(0.0987654320987654,0,0,0.0987654320987654,98.4691358024691,0)" xlink:href="#aQ"/><use transform="matrix(0.0987654320987654,0,0,0.0987654320987654,118.22222222222219,0)" xlink:href="#aj"/><use transform="matrix(0.0987654320987654,0,0,0.0987654320987654,128.0987654320987,0)" xlink:href="#ap"/><use transform="matrix(0.0987654320987654,0,0,0.0987654320987654,135.90123456790116,0)" xlink:href="#aM"/><use transform="matrix(0.0987654320987654,0,0,0.0987654320987654,155.65432098765424,0)" xlink:href="#an"/></g><path fill="#3a414a" d="M30 0v-248h33v221h125V0H30" id="aX"/><path fill="#3a414a" d="M106-169C34-169 62-67 57 0H25v-261h32l-1 103c12-21 28-36 61-36 89 0 53 116 60 194h-32v-121c2-32-8-49-39-48" id="aY"/><g id="t"><use transform="matrix(0.0987654320987654,0,0,0.0987654320987654,0,0)" xlink:href="#aU"/><use transform="matrix(0.0987654320987654,0,0,0.0987654320987654,11.753086419753082,0)" xlink:href="#aX"/><use transform="matrix(0.0987654320987654,0,0,0.0987654320987654,31.506172839506164,0)" xlink:href="#ap"/><use transform="matrix(0.0987654320987654,0,0,0.0987654320987654,39.308641975308625,0)" xlink:href="#aK"/><use transform="matrix(0.0987654320987654,0,0,0.0987654320987654,59.06172839506171,0)" xlink:href="#aY"/><use transform="matrix(0.0987654320987654,0,0,0.0987654320987654,78.81481481481478,0)" xlink:href="#aj"/><use transform="matrix(0.0987654320987654,0,0,0.0987654320987654,88.69135802469133,0)" xlink:href="#ap"/><use transform="matrix(0.0987654320987654,0,0,0.0987654320987654,96.4938271604938,0)" xlink:href="#an"/><use transform="matrix(0.0987654320987654,0,0,0.0987654320987654,116.24691358024687,0)" xlink:href="#aK"/></g><g id="u"><use transform="matrix(0.0987654320987654,0,0,0.0987654320987654,0,0)" xlink:href="#aU"/><use transform="matrix(0.0987654320987654,0,0,0.0987654320987654,11.753086419753082,0)" xlink:href="#aP"/><use transform="matrix(0.0987654320987654,0,0,0.0987654320987654,43.9506172839506,0)" xlink:href="#aQ"/><use transform="matrix(0.0987654320987654,0,0,0.0987654320987654,63.70370370370368,0)" xlink:href="#aj"/><use transform="matrix(0.0987654320987654,0,0,0.0987654320987654,73.58024691358023,0)" xlink:href="#ak"/><use transform="matrix(0.0987654320987654,0,0,0.0987654320987654,93.3333333333333,0)" xlink:href="#aJ"/></g><g id="v"><use transform="matrix(0.0987654320987654,0,0,0.0987654320987654,0,0)" xlink:href="#ai"/><use transform="matrix(0.0987654320987654,0,0,0.0987654320987654,23.703703703703695,0)" xlink:href="#aN"/><use transform="matrix(0.0987654320987654,0,0,0.0987654320987654,43.45679012345677,0)" xlink:href="#aO"/><use transform="matrix(0.0987654320987654,0,0,0.0987654320987654,63.209876543209845,0)" xlink:href="#aO"/><use transform="matrix(0.0987654320987654,0,0,0.0987654320987654,82.96296296296292,0)" xlink:href="#aW"/><use transform="matrix(0.0987654320987654,0,0,0.0987654320987654,90.76543209876539,0)" xlink:href="#aq"/></g><path fill="#3a414a" d="M33 0v-248h34V0H33" id="aZ"/><path fill="#3a414a" d="M108 0H70L1-190h34L89-25l56-165h34" id="ba"/><g id="w"><use transform="matrix(0.0987654320987654,0,0,0.0987654320987654,0,0)" xlink:href="#aZ"/><use transform="matrix(0.0987654320987654,0,0,0.0987654320987654,9.876543209876539,0)" xlink:href="#an"/><use transform="matrix(0.0987654320987654,0,0,0.0987654320987654,29.62962962962962,0)" xlink:href="#aj"/><use transform="matrix(0.0987654320987654,0,0,0.0987654320987654,39.506172839506156,0)" xlink:href="#ak"/><use transform="matrix(0.0987654320987654,0,0,0.0987654320987654,59.25925925925924,0)" xlink:href="#aJ"/><use transform="matrix(0.0987654320987654,0,0,0.0987654320987654,71.01234567901233,0)" xlink:href="#ba"/><use transform="matrix(0.0987654320987654,0,0,0.0987654320987654,88.7901234567901,0)" xlink:href="#aQ"/><use transform="matrix(0.0987654320987654,0,0,0.0987654320987654,108.54320987654317,0)" xlink:href="#aW"/><use transform="matrix(0.0987654320987654,0,0,0.0987654320987654,116.34567901234564,0)" xlink:href="#ao"/></g><g id="x"><use transform="matrix(0.0987654320987654,0,0,0.0987654320987654,0,0)" xlink:href="#am"/><use transform="matrix(0.0987654320987654,0,0,0.0987654320987654,25.58024691358024,0)" xlink:href="#aN"/><use transform="matrix(0.0987654320987654,0,0,0.0987654320987654,45.333333333333314,0)" xlink:href="#aJ"/><use transform="matrix(0.0987654320987654,0,0,0.0987654320987654,57.0864197530864,0)" xlink:href="#aQ"/><use transform="matrix(0.0987654320987654,0,0,0.0987654320987654,76.83950617283948,0)" xlink:href="#aj"/><use transform="matrix(0.0987654320987654,0,0,0.0987654320987654,86.71604938271602,0)" xlink:href="#ap"/><use transform="matrix(0.0987654320987654,0,0,0.0987654320987654,94.51851851851849,0)" xlink:href="#aM"/><use transform="matrix(0.0987654320987654,0,0,0.0987654320987654,114.27160493827157,0)" xlink:href="#an"/></g><g id="y"><use transform="matrix(0.0987654320987654,0,0,0.0987654320987654,0,0)" xlink:href="#aU"/><use transform="matrix(0.0987654320987654,0,0,0.0987654320987654,11.753086419753082,0)" xlink:href="#aR"/><use transform="matrix(0.0987654320987654,0,0,0.0987654320987654,37.33333333333332,0)" xlink:href="#ak"/><use transform="matrix(0.0987654320987654,0,0,0.0987654320987654,57.0864197530864,0)" xlink:href="#aQ"/><use transform="matrix(0.0987654320987654,0,0,0.0987654320987654,76.83950617283948,0)" xlink:href="#aj"/><use transform="matrix(0.0987654320987654,0,0,0.0987654320987654,86.71604938271602,0)" xlink:href="#ap"/><use transform="matrix(0.0987654320987654,0,0,0.0987654320987654,94.51851851851849,0)" xlink:href="#an"/><use transform="matrix(0.0987654320987654,0,0,0.0987654320987654,114.27160493827157,0)" xlink:href="#aK"/></g><path fill="#3a414a" d="M127-220V0H93v-220H8v-28h204v28h-85" id="bb"/><g id="z"><use transform="matrix(0.0987654320987654,0,0,0.0987654320987654,0,0)" xlink:href="#bb"/><use transform="matrix(0.0987654320987654,0,0,0.0987654320987654,17.679012345679006,0)" xlink:href="#ak"/><use transform="matrix(0.0987654320987654,0,0,0.0987654320987654,37.43209876543209,0)" xlink:href="#al"/><use transform="matrix(0.0987654320987654,0,0,0.0987654320987654,66.96296296296293,0)" xlink:href="#aO"/></g><g id="A"><use transform="matrix(0.0987654320987654,0,0,0.0987654320987654,0,0)" xlink:href="#aU"/><use transform="matrix(0.0987654320987654,0,0,0.0987654320987654,11.753086419753082,0)" xlink:href="#ai"/><use transform="matrix(0.0987654320987654,0,0,0.0987654320987654,35.45679012345678,0)" xlink:href="#aT"/><use transform="matrix(0.0987654320987654,0,0,0.0987654320987654,53.23456790123455,0)" xlink:href="#aJ"/><use transform="matrix(0.0987654320987654,0,0,0.0987654320987654,64.98765432098763,0)" xlink:href="#ak"/><use transform="matrix(0.0987654320987654,0,0,0.0987654320987654,84.7407407407407,0)" xlink:href="#ak"/><use transform="matrix(0.0987654320987654,0,0,0.0987654320987654,104.49382716049377,0)" xlink:href="#an"/><use transform="matrix(0.0987654320987654,0,0,0.0987654320987654,124.24691358024685,0)" xlink:href="#ap"/><use transform="matrix(0.0987654320987654,0,0,0.0987654320987654,132.0493827160493,0)" xlink:href="#an"/><use transform="matrix(0.0987654320987654,0,0,0.0987654320987654,151.8024691358024,0)" xlink:href="#aK"/></g><path fill="#3a414a" d="M85-194c31 0 48 13 60 33l-1-100h32l1 261h-30c-2-10 0-23-3-31C134-8 116 4 85 4 32 4 16-35 15-94c0-66 23-100 70-100zm9 24c-40 0-46 34-46 75 0 40 6 74 45 74 42 0 51-32 51-76 0-42-9-74-50-73" id="bc"/><path fill="#3a414a" d="M101-234c-31-9-42 10-38 44h38v23H63V0H32v-167H5v-23h27c-7-52 17-82 69-68v24" id="bd"/><g id="B"><use transform="matrix(0.0987654320987654,0,0,0.0987654320987654,0,0)" xlink:href="#aU"/><use transform="matrix(0.0987654320987654,0,0,0.0987654320987654,11.753086419753082,0)" xlink:href="#aR"/><use transform="matrix(0.0987654320987654,0,0,0.0987654320987654,37.33333333333332,0)" xlink:href="#aN"/><use transform="matrix(0.0987654320987654,0,0,0.0987654320987654,57.0864197530864,0)" xlink:href="#al"/><use transform="matrix(0.0987654320987654,0,0,0.0987654320987654,86.61728395061726,0)" xlink:href="#ap"/><use transform="matrix(0.0987654320987654,0,0,0.0987654320987654,94.41975308641973,0)" xlink:href="#bc"/><use transform="matrix(0.0987654320987654,0,0,0.0987654320987654,114.1728395061728,0)" xlink:href="#ap"/><use transform="matrix(0.0987654320987654,0,0,0.0987654320987654,121.97530864197526,0)" xlink:href="#bd"/><use transform="matrix(0.0987654320987654,0,0,0.0987654320987654,131.85185185185182,0)" xlink:href="#ap"/><use transform="matrix(0.0987654320987654,0,0,0.0987654320987654,139.65432098765427,0)" xlink:href="#aT"/><use transform="matrix(0.0987654320987654,0,0,0.0987654320987654,157.43209876543204,0)" xlink:href="#aQ"/><use transform="matrix(0.0987654320987654,0,0,0.0987654320987654,177.18518518518513,0)" xlink:href="#aj"/><use transform="matrix(0.0987654320987654,0,0,0.0987654320987654,187.06172839506166,0)" xlink:href="#ap"/><use transform="matrix(0.0987654320987654,0,0,0.0987654320987654,194.86419753086412,0)" xlink:href="#aM"/><use transform="matrix(0.0987654320987654,0,0,0.0987654320987654,214.6172839506172,0)" xlink:href="#an"/></g><path fill="#3a414a" d="M101-251c82-7 93 87 43 132L82-64C71-53 59-42 53-27h129V0H18c2-99 128-94 128-182 0-28-16-43-45-43s-46 15-49 41l-32-3c6-41 34-60 81-64" id="be"/><g id="C"><use transform="matrix(0.0987654320987654,0,0,0.0987654320987654,0,0)" xlink:href="#aU"/><use transform="matrix(0.0987654320987654,0,0,0.0987654320987654,11.753086419753082,0)" xlink:href="#aL"/><use transform="matrix(0.0987654320987654,0,0,0.0987654320987654,37.33333333333332,0)" xlink:href="#aM"/><use transform="matrix(0.0987654320987654,0,0,0.0987654320987654,57.0864197530864,0)" xlink:href="#be"/></g><path fill="#3a414a" d="M30-248c87 1 191-15 191 75 0 78-77 80-158 76V0H30v-248zm33 125c57 0 124 11 124-50 0-59-68-47-124-48v98" id="bf"/><g id="D"><use transform="matrix(0.0987654320987654,0,0,0.0987654320987654,0,0)" xlink:href="#ai"/><use transform="matrix(0.0987654320987654,0,0,0.0987654320987654,23.703703703703695,0)" xlink:href="#ak"/><use transform="matrix(0.0987654320987654,0,0,0.0987654320987654,43.45679012345677,0)" xlink:href="#aj"/><use transform="matrix(0.0987654320987654,0,0,0.0987654320987654,53.33333333333331,0)" xlink:href="#bf"/><use transform="matrix(0.0987654320987654,0,0,0.0987654320987654,77.03703703703701,0)" xlink:href="#aM"/><use transform="matrix(0.0987654320987654,0,0,0.0987654320987654,96.79012345679008,0)" xlink:href="#ap"/><use transform="matrix(0.0987654320987654,0,0,0.0987654320987654,104.59259259259255,0)" xlink:href="#an"/><use transform="matrix(0.0987654320987654,0,0,0.0987654320987654,124.34567901234564,0)" xlink:href="#aj"/></g><path fill="#3a414a" d="M233-177c-1 41-23 64-60 70L243 0h-38l-65-103H63V0H30v-248c88 3 205-21 203 71zM63-129c60-2 137 13 137-47 0-61-80-42-137-45v92" id="bg"/><path fill="#3a414a" d="M206 0h-36l-40-164L89 0H53L-1-190h32L70-26l43-164h34l41 164 42-164h31" id="bh"/><g id="F"><use transform="matrix(0.11172839506172831,0,0,0.11172839506172831,0,0)" xlink:href="#bg"/><use transform="matrix(0.11172839506172831,0,0,0.11172839506172831,28.937654320987633,0)" xlink:href="#ak"/><use transform="matrix(0.11172839506172831,0,0,0.11172839506172831,51.283333333333296,0)" xlink:href="#bh"/><use transform="matrix(0.11172839506172831,0,0,0.11172839506172831,80.22098765432094,0)" xlink:href="#aQ"/><use transform="matrix(0.11172839506172831,0,0,0.11172839506172831,102.5666666666666,0)" xlink:href="#aJ"/><use transform="matrix(0.11172839506172831,0,0,0.11172839506172831,115.86234567901228,0)" xlink:href="#bc"/><use transform="matrix(0.11172839506172831,0,0,0.11172839506172831,138.20802469135793,0)" xlink:href="#ao"/></g><path fill="#3a414a" d="M140-251c81 0 123 46 123 126C263-46 219 4 140 4 59 4 17-45 17-125s42-126 123-126zm0 227c63 0 89-41 89-101s-29-99-89-99c-61 0-89 39-89 99S79-25 140-24" id="bi"/><path fill="#3a414a" d="M115-194c53 0 69 39 70 98 0 66-23 100-70 100C84 3 66-7 56-30L54 0H23l1-261h32v101c10-23 28-34 59-34zm-8 174c40 0 45-34 45-75 0-40-5-75-45-74-42 0-51 32-51 76 0 43 10 73 51 73" id="bj"/><g id="G"><use transform="matrix(0.11172839506172827,0,0,0.11172839506172827,0,0)" xlink:href="#bi"/><use transform="matrix(0.11172839506172827,0,0,0.11172839506172827,31.283950617283914,0)" xlink:href="#bj"/><use transform="matrix(0.11172839506172827,0,0,0.11172839506172827,53.62962962962957,0)" xlink:href="#ao"/><use transform="matrix(0.11172839506172827,0,0,0.11172839506172827,73.74074074074066,0)" xlink:href="#ak"/><use transform="matrix(0.11172839506172827,0,0,0.11172839506172827,96.08641975308632,0)" xlink:href="#aJ"/><use transform="matrix(0.11172839506172827,0,0,0.11172839506172827,109.38209876543198,0)" xlink:href="#ba"/><use transform="matrix(0.11172839506172827,0,0,0.11172839506172827,129.49320987654306,0)" xlink:href="#aQ"/><use transform="matrix(0.11172839506172827,0,0,0.11172839506172827,151.83888888888873,0)" xlink:href="#aj"/><use transform="matrix(0.11172839506172827,0,0,0.11172839506172827,163.01172839506157,0)" xlink:href="#ap"/><use transform="matrix(0.11172839506172827,0,0,0.11172839506172827,171.8382716049381,0)" xlink:href="#aM"/><use transform="matrix(0.11172839506172827,0,0,0.11172839506172827,194.18395061728376,0)" xlink:href="#an"/><use transform="matrix(0.11172839506172827,0,0,0.11172839506172827,216.52962962962943,0)" xlink:href="#ao"/></g><path fill="#3a414a" d="M143 0L79-87 56-68V0H24v-261h32v163l83-92h37l-77 82L181 0h-38" id="bk"/><g id="H"><use transform="matrix(0.09938271604938267,0,0,0.09938271604938267,0,0)" xlink:href="#bb"/><use transform="matrix(0.09938271604938267,0,0,0.09938271604938267,21.764814814814805,0)" xlink:href="#aY"/><use transform="matrix(0.09938271604938267,0,0,0.09938271604938267,41.64135802469134,0)" xlink:href="#ap"/><use transform="matrix(0.09938271604938267,0,0,0.09938271604938267,49.49259259259257,0)" xlink:href="#aT"/><use transform="matrix(0.09938271604938267,0,0,0.09938271604938267,67.38148148148146,0)" xlink:href="#bk"/><use transform="matrix(0.09938271604938267,0,0,0.09938271604938267,85.27037037037034,0)" xlink:href="#an"/><use transform="matrix(0.09938271604938267,0,0,0.09938271604938267,105.14691358024687,0)" xlink:href="#ak"/><use transform="matrix(0.09938271604938267,0,0,0.09938271604938267,125.0234567901234,0)" xlink:href="#ao"/><use transform="matrix(0.09938271604938267,0,0,0.09938271604938267,142.91234567901228,0)" xlink:href="#ao"/></g><g id="I"><use transform="matrix(0.09938271604938267,0,0,0.09938271604938267,0,0)" xlink:href="#aI"/><use transform="matrix(0.09938271604938267,0,0,0.09938271604938267,23.85185185185184,0)" xlink:href="#aW"/><use transform="matrix(0.09938271604938267,0,0,0.09938271604938267,31.703086419753074,0)" xlink:href="#aM"/><use transform="matrix(0.09938271604938267,0,0,0.09938271604938267,51.57962962962961,0)" xlink:href="#an"/><use transform="matrix(0.09938271604938267,0,0,0.09938271604938267,71.45617283950614,0)" xlink:href="#aK"/><use transform="matrix(0.09938271604938267,0,0,0.09938271604938267,91.33271604938267,0)" xlink:href="#aQ"/><use transform="matrix(0.09938271604938267,0,0,0.09938271604938267,111.20925925925918,0)" xlink:href="#aj"/><use transform="matrix(0.09938271604938267,0,0,0.09938271604938267,121.14753086419746,0)" xlink:href="#ap"/><use transform="matrix(0.09938271604938267,0,0,0.09938271604938267,128.9987654320987,0)" xlink:href="#aM"/><use transform="matrix(0.09938271604938267,0,0,0.09938271604938267,148.87530864197524,0)" xlink:href="#an"/></g><g id="J"><use transform="matrix(0.09938271604938267,0,0,0.09938271604938267,0,0)" xlink:href="#aL"/><use transform="matrix(0.09938271604938267,0,0,0.09938271604938267,25.740123456790112,0)" xlink:href="#bi"/><use transform="matrix(0.09938271604938267,0,0,0.09938271604938267,53.56728395061726,0)" xlink:href="#be"/></g><g id="K"><use transform="matrix(0.0987654320987654,0,0,0.0987654320987654,0,0)" xlink:href="#bb"/><use transform="matrix(0.0987654320987654,0,0,0.0987654320987654,20.345679012345673,0)" xlink:href="#ap"/><use transform="matrix(0.0987654320987654,0,0,0.0987654320987654,28.148148148148138,0)" xlink:href="#al"/><use transform="matrix(0.0987654320987654,0,0,0.0987654320987654,57.67901234567899,0)" xlink:href="#ak"/></g><g id="L"><use transform="matrix(0.0987654320987654,0,0,0.0987654320987654,0,0)" xlink:href="#ai"/><use transform="matrix(0.0987654320987654,0,0,0.0987654320987654,23.703703703703695,0)" xlink:href="#ak"/><use transform="matrix(0.0987654320987654,0,0,0.0987654320987654,43.45679012345677,0)" xlink:href="#aJ"/><use transform="matrix(0.0987654320987654,0,0,0.0987654320987654,55.209876543209845,0)" xlink:href="#ap"/><use transform="matrix(0.0987654320987654,0,0,0.0987654320987654,63.01234567901233,0)" xlink:href="#ak"/><use transform="matrix(0.0987654320987654,0,0,0.0987654320987654,82.7654320987654,0)" xlink:href="#ao"/></g><g id="M"><use transform="matrix(0.0987654320987654,0,0,0.0987654320987654,0,0)" xlink:href="#bi"/><use transform="matrix(0.0987654320987654,0,0,0.0987654320987654,27.654320987654312,0)" xlink:href="#aN"/><use transform="matrix(0.0987654320987654,0,0,0.0987654320987654,47.40740740740739,0)" xlink:href="#aj"/><use transform="matrix(0.0987654320987654,0,0,0.0987654320987654,57.28395061728393,0)" xlink:href="#ao"/><use transform="matrix(0.0987654320987654,0,0,0.0987654320987654,75.06172839506169,0)" xlink:href="#ap"/><use transform="matrix(0.0987654320987654,0,0,0.0987654320987654,82.86419753086416,0)" xlink:href="#bc"/><use transform="matrix(0.0987654320987654,0,0,0.0987654320987654,102.61728395061722,0)" xlink:href="#ak"/></g><g id="N"><use transform="matrix(0.0987654320987654,0,0,0.0987654320987654,0,0)" xlink:href="#aP"/><use transform="matrix(0.0987654320987654,0,0,0.0987654320987654,32.790123456790106,0)" xlink:href="#ak"/><use transform="matrix(0.0987654320987654,0,0,0.0987654320987654,52.543209876543195,0)" xlink:href="#aQ"/><use transform="matrix(0.0987654320987654,0,0,0.0987654320987654,72.29629629629626,0)" xlink:href="#aj"/><use transform="matrix(0.0987654320987654,0,0,0.0987654320987654,82.1728395061728,0)" xlink:href="#aY"/><use transform="matrix(0.0987654320987654,0,0,0.0987654320987654,101.9259259259259,0)" xlink:href="#ak"/><use transform="matrix(0.0987654320987654,0,0,0.0987654320987654,121.67901234567896,0)" xlink:href="#aJ"/></g></defs></g></svg>