<svg xmlns="http://www.w3.org/2000/svg" xmlns:xlink="http://www.w3.org/1999/xlink" xmlns:lucid="lucid" width="3170" height="1256"><g transform="translate(-678 -4912)" lucid:page-tab-id="0_0"><path d="M-2500 2000h6500v4500h-6500z" fill="#fff"/><path d="M1007.05 5444c22.1 0 40 17.9 40 40s-17.9 40-40 40h-80c-22.1 0-40-17.9-40-40s17.9-40 40-40z" stroke="#c3f7c8" stroke-width="5" fill="#e3fae3"/><use xlink:href="#a" transform="matrix(1,0,0,1,892.0501447474496,5449.000000000001) translate(42.2037037037037 40.20138888888889)"/><path d="M1120 5422a6 6 0 0 1 6-6h150a6 6 0 0 1 6 6v124a6 6 0 0 1-6 6h-150a6 6 0 0 1-6-6z" stroke="#85b689" stroke-width="5" fill="#b1d5b4"/><use xlink:href="#b" transform="matrix(1,0,0,1,1132,5428.000000000001) translate(-2.555555555555557 24.888888888888893)"/><use xlink:href="#c" transform="matrix(1,0,0,1,1132,5428.000000000001) translate(12.870370370370367 62.222222222222236)"/><use xlink:href="#d" transform="matrix(1,0,0,1,1132,5428.000000000001) translate(21.469135802469133 99.55555555555557)"/><path d="M1476.53 5348.47a5.38 5.38 0 0 1 8.02 0l117.57 131.06a6.7 6.7 0 0 1 0 8.94l-117.57 131.06a5.38 5.38 0 0 1-8.02 0l-117.57-131.06a6.7 6.7 0 0 1 0-8.94z" stroke="#00c2a8" stroke-width="5" fill="#d7faf5"/><use xlink:href="#e" transform="matrix(1,0,0,1,1359.9498552525504,5349) translate(58.28277777777778 121.92013888888889)"/><use xlink:href="#f" transform="matrix(1,0,0,1,1359.9498552525504,5349) translate(146.43092592592592 121.92013888888889)"/><use xlink:href="#g" transform="matrix(1,0,0,1,1359.9498552525504,5349) translate(47.09141975308641 159.25347222222223)"/><use xlink:href="#h" transform="matrix(1,0,0,1,1359.9498552525504,5349) translate(114.41240740740741 159.25347222222223)"/><path d="M2777 5429a6 6 0 0 1 6-6h150a6 6 0 0 1 6 6v110a6 6 0 0 1-6 6h-150a6 6 0 0 1-6-6z" stroke="#85b689" stroke-width="5" fill="#b1d5b4"/><use xlink:href="#i" transform="matrix(1,0,0,1,2788.992901234139,5435.000000000001) translate(41.34567901234568 55.51388888888889)"/><path d="M1836.55 5344.56a5.12 5.12 0 0 1 7.8 0l111.75 130.88a7.03 7.03 0 0 1 0 9.12l-111.76 130.88a5.12 5.12 0 0 1-7.8 0l-111.76-130.88a7.03 7.03 0 0 1 0-9.12z" stroke="#00c2a8" stroke-width="5" fill="#d7faf5"/><use xlink:href="#j" transform="matrix(1,0,0,1,1725.8828508460615,5345) translate(70.47413580246914 105.04513888888889)"/><use xlink:href="#k" transform="matrix(1,0,0,1,1725.8828508460615,5345) translate(14.863024691358016 142.37847222222223)"/><use xlink:href="#l" transform="matrix(1,0,0,1,1725.8828508460615,5345) translate(90.73956790123457 142.37847222222223)"/><use xlink:href="#m" transform="matrix(1,0,0,1,1725.8828508460615,5345) translate(195.99882716049382 142.37847222222223)"/><use xlink:href="#n" transform="matrix(1,0,0,1,1725.8828508460615,5345) translate(93.40006172839506 179.71180555555557)"/><path d="M2181.27 5344.33a5.77 5.77 0 0 1 8.3 0l126.27 131.34a6.24 6.24 0 0 1 0 8.66l-126.26 131.34a5.77 5.77 0 0 1-8.3 0L2055 5484.33a6.24 6.24 0 0 1 0-8.66z" stroke="#00c2a8" stroke-width="5" fill="#d7faf5"/><use xlink:href="#j" transform="matrix(1,0,0,1,2055.851934571179,5345) translate(85.47413580246914 92.38888888888889)"/><use xlink:href="#o" transform="matrix(1,0,0,1,2055.851934571179,5345) translate(26.83833333333332 129.72222222222223)"/><use xlink:href="#p" transform="matrix(1,0,0,1,2055.851934571179,5345) translate(99.25808641975308 129.72222222222223)"/><use xlink:href="#q" transform="matrix(1,0,0,1,2055.851934571179,5345) translate(38.029691358024685 167.05555555555557)"/><use xlink:href="#r" transform="matrix(1,0,0,1,2055.851934571179,5345) translate(103.14697530864197 204.3888888888889)"/><use xlink:href="#s" transform="matrix(1,0,0,1,2055.851934571179,5345) translate(111.78895061728394 204.3888888888889)"/><use xlink:href="#t" transform="matrix(1,0,0,1,2055.851934571179,5345) translate(138.57907407407407 204.3888888888889)"/><path d="M2544.47 5344.45a5.43 5.43 0 0 1 8.05 0l120.45 133.1a6.63 6.63 0 0 1 0 8.9l-120.45 133.1a5.43 5.43 0 0 1-8.05 0l-120.44-133.1a6.63 6.63 0 0 1 0-8.9z" stroke="#00c2a8" stroke-width="5" fill="#d7faf5"/><use xlink:href="#u" transform="matrix(1,0,0,1,2425,5345) translate(68.325987654321 84.82638888888889)"/><use xlink:href="#v" transform="matrix(1,0,0,1,2425,5345) translate(36.43709876543211 122.15972222222223)"/><use xlink:href="#w" transform="matrix(1,0,0,1,2425,5345) translate(143.33833333333334 122.15972222222223)"/><use xlink:href="#l" transform="matrix(1,0,0,1,2425,5345) translate(26.8445061728395 159.49305555555557)"/><use xlink:href="#x" transform="matrix(1,0,0,1,2425,5345) translate(132.10376543209875 159.49305555555557)"/><use xlink:href="#y" transform="matrix(1,0,0,1,2425,5345) translate(88.505 196.8263888888889)"/><use xlink:href="#z" transform="matrix(1,0,0,1,2425,5345) translate(115.29512345679012 196.8263888888889)"/><path d="M1483 5951.9l.07.65.12.54.2.5.3.47.35.42.42.35.47.28.5.22.55.12.64.05h107.5v4.95h-107.7l-1.23-.1-1.28-.3-1.23-.5-1.15-.7-1-.87-.87-1-.7-1.15-.5-1.23-.32-1.3-.1-1.22v-325.77h4.95zm510.14 8.58h-345.42v-4.95h345.42zm538 0h-484.4l-.02-4.95h484.43zm329.33-8.38l-.1 1.23-.3 1.3-.52 1.22-.7 1.14-.86 1-1.02.86-1.14.7-1.23.5-1.28.32-1.23.1h-267.37v-4.95h267.17l.64-.06.54-.13.5-.2.48-.3.42-.35.36-.43.3-.47.2-.5.13-.55.05-.65v-379.54h4.95z" stroke="#008a0e" stroke-width=".05" fill="#008a0e"/><path d="M1479.22 5623.72l1.32.1 1.32-.1 1.15-.3v2.98h-4.94v-2.98z" fill="#008a0e"/><path stroke="#008a0e" stroke-width=".05" fill="#008a0e"/><path d="M2862.63 5569.86h-9.27l4.63-14.27z" fill="#008a0e"/><path d="M2866.03 5572.33h-16.08l8.04-24.75zm-9.27-4.95h2.46l-1.23-3.78z" stroke="#008a0e" stroke-width=".05" fill="#008a0e"/><use xlink:href="#A" transform="matrix(1,0,0,1,1594.1383542344367,5939.333333333333) translate(0 24.888888888888893)"/><path d="M3038.5 5422a6 6 0 0 1 6-6h150a6 6 0 0 1 6 6v124a6 6 0 0 1-6 6h-150a6 6 0 0 1-6-6z" stroke="#85b689" stroke-width="5" fill="#b1d5b4"/><use xlink:href="#B" transform="matrix(1,0,0,1,3050.4964506170695,5428.000000000001) translate(28.382716049382715 28.388888888888893)"/><use xlink:href="#C" transform="matrix(1,0,0,1,3050.4964506170695,5428.000000000001) translate(5.135802469135797 65.72222222222223)"/><use xlink:href="#D" transform="matrix(1,0,0,1,3050.4964506170695,5428.000000000001) translate(0.7716049382715937 103.05555555555557)"/><path d="M3260 5403.33a6 6 0 0 1 6-6h208a6 6 0 0 1 6 6v161.34a6 6 0 0 1-6 6h-208a6 6 0 0 1-6-6z" stroke="#85b689" stroke-width="5" fill="#b1d5b4"/><use xlink:href="#B" transform="matrix(1,0,0,1,3272,5409.333333333334) translate(57.382716049382715 29.576388888888893)"/><use xlink:href="#E" transform="matrix(1,0,0,1,3272,5409.333333333334) translate(28.993827160493822 66.90972222222223)"/><use xlink:href="#F" transform="matrix(1,0,0,1,3272,5409.333333333334) translate(2.246913580246897 104.24305555555557)"/><use xlink:href="#G" transform="matrix(1,0,0,1,3272,5409.333333333334) translate(131.7037037037037 104.24305555555557)"/><use xlink:href="#H" transform="matrix(1,0,0,1,3272,5409.333333333334) translate(47.05555555555555 141.5763888888889)"/><path d="M3659.5 5444c22.1 0 40 17.9 40 40s-17.9 40-40 40h-80c-22.1 0-40-17.9-40-40s17.9-40 40-40z" stroke="#c3f7c8" stroke-width="5" fill="#e3fae3"/><use xlink:href="#i" transform="matrix(1,0,0,1,3544.5035493829305,5449.000000000001) translate(47.34567901234568 40.20138888888889)"/><path d="M1052.05 5484h40.6" stroke="#3a414a" stroke-width="5" fill="none"/><path d="M1052.12 5486.48h-2.72l.15-2.45-.1-2.5h2.67z" stroke="#3a414a" stroke-width=".05" fill="#3a414a"/><path d="M1109.4 5484l-14.26 4.64v-9.28z" stroke="#3a414a" stroke-width="5" fill="#3a414a"/><path d="M1287 5484H1329.88" stroke="#3a414a" stroke-width="5" fill="none"/><path d="M1287.06 5486.48h-2.56v-4.95h2.56z" stroke="#3a414a" stroke-width=".05" fill="#3a414a"/><path d="M1346.65 5484l-14.27 4.64v-9.28z" stroke="#3a414a" stroke-width="5" fill="#3a414a"/><path d="M1842.92 5951.9l.05.65.13.54.2.5.3.47.35.42.42.35.48.28.5.22.54.12.64.05h146.6v4.95h-146.8l-1.23-.1-1.28-.3-1.23-.5-1.14-.7-1.02-.87-.86-1-.7-1.15-.5-1.23-.32-1.3-.1-1.22v-329.86h4.96zm688.23 8.58h-484.43v-4.95h484.43zm329.32-8.38l-.1 1.23-.3 1.3-.52 1.22-.7 1.14-.86 1-1.02.86-1.14.7-1.23.5-1.28.32-1.23.1h-267.37v-4.95h267.17l.64-.06.54-.13.5-.2.48-.3.42-.35.36-.43.3-.47.2-.5.13-.55.05-.65v-379.54h4.95z" stroke="#008a0e" stroke-width=".05" fill="#008a0e"/><path d="M1839.13 5619.63l1.3.1 1.32-.1 1.17-.3v2.98h-4.95v-2.98z" fill="#008a0e"/><path stroke="#008a0e" stroke-width=".05" fill="#008a0e"/><path d="M2862.63 5569.86h-9.27l4.63-14.27z" fill="#008a0e"/><path d="M2866.03 5572.33h-16.08l8.04-24.75zm-9.27-4.95h2.46l-1.23-3.78z" stroke="#008a0e" stroke-width=".05" fill="#008a0e"/><use xlink:href="#A" transform="matrix(1,0,0,1,1993.144810370251,5939.333333333333) translate(0 24.888888888888893)"/><path d="M1626.38 5486.48h-17.54v-4.95h17.54zm69.35-4h-11.6v-4.95h11.6z" stroke="#e81313" stroke-width=".05" fill="#e81313"/><path d="M1608.9 5486.48h-2.9l.24-1.14.1-1.34-.1-1.34-.25-1.14h2.9z" fill="#e81313"/><path stroke="#e81313" stroke-width=".05" fill="#e81313"/><path d="M1712.5 5480l-14.27 4.64v-9.28z" fill="#e81313"/><path d="M1720.5 5480l-24.74 8.04v-16.08zm-19.8 1.23l3.8-1.23-3.8-1.23z" stroke="#e81313" stroke-width=".05" fill="#e81313"/><use xlink:href="#I" transform="matrix(1,0,0,1,1642.809413156343,5463.333333333333) translate(0 24.888888888888893)"/><path d="M2187.9 5951.9l.05.65.13.54.2.5.3.47.36.42.42.35.47.28.5.22.55.12.64.05h339.63v4.95h-339.82l-1.23-.1-1.3-.3-1.23-.5-1.13-.7-1-.87-.88-1-.7-1.15-.5-1.23-.3-1.3-.1-1.22v-329.65h4.94zm672.57.2l-.1 1.23-.3 1.3-.52 1.22-.7 1.14-.86 1-1.02.86-1.14.7-1.23.5-1.28.32-1.23.1h-267.37v-4.95h267.17l.64-.06.54-.13.5-.2.48-.3.42-.35.36-.43.3-.47.2-.5.13-.55.05-.65v-379.54h4.95z" stroke="#008a0e" stroke-width=".05" fill="#008a0e"/><path d="M2184.1 5619.85l1.33.1 1.32-.1 1.15-.3v2.97h-4.95v-2.96z" fill="#008a0e"/><path stroke="#008a0e" stroke-width=".05" fill="#008a0e"/><path d="M2862.63 5569.86h-9.27l4.63-14.27z" fill="#008a0e"/><path d="M2866.03 5572.33h-16.08l8.04-24.75zm-9.27-4.95h2.46l-1.23-3.78z" stroke="#008a0e" stroke-width=".05" fill="#008a0e"/><use xlink:href="#A" transform="matrix(1,0,0,1,2531.145875662376,5939.333333333333) translate(0 24.888888888888893)"/><path d="M1983.83 5482.48h-21.04v-4.95h21.03z" stroke="#e81313" stroke-width=".05" fill="#e81313"/><path d="M1962.86 5482.48h-2.9l.24-1.14.1-1.34-.1-1.34-.25-1.14h2.9z" fill="#e81313"/><path stroke="#e81313" stroke-width=".05" fill="#e81313"/><path d="M2042.67 5480l-14.27 4.64v-9.28z" fill="#e81313"/><path d="M2050.68 5480l-24.5 7.96v-15.92zm-19.8 1.23l3.78-1.23-3.78-1.23z" stroke="#e81313" stroke-width=".05" fill="#e81313"/><use xlink:href="#I" transform="matrix(1,0,0,1,1984.872492733805,5461.333333333333) translate(0 24.888888888888893)"/><path d="M2550.97 5774.9l.05.65.13.54.2.5.3.47.36.42.43.35.47.28.5.22.55.12.64.05h25.27v4.95h-25.47l-1.23-.1-1.3-.3-1.22-.5-1.14-.7-1-.87-.87-1-.7-1.15-.5-1.23-.3-1.3-.1-1.22v-24.88h4.94zm105 8.58h-50.73v-4.95h50.73zm37.05 0h-11.68v-4.95H2693zm115.17 0h-50.75v-4.95h50.74zm76.1 0h-50.74v-4.95h50.74zm76.1 0h-50.74v-4.95h50.74zm50.74 0h-25.37v-4.95h25.37zm-460.17-58.03h-4.95v-49.55h4.95zm0-74.33h-4.95v-24.77h4.95z" stroke="#e81313" stroke-width=".05" fill="#e81313"/><path d="M2547.18 5623.74l1.32.1 1.32-.1 1.15-.3v2.97h-4.95v-2.96z" fill="#e81313"/><path stroke="#e81313" stroke-width=".05" fill="#e81313"/><path d="M3027.9 5781l-14.26 4.64v-9.28z" fill="#e81313"/><path d="M3035.92 5781l-24.76 8.04v-16.08zm-19.8 1.23l3.78-1.23-3.8-1.23z" stroke="#e81313" stroke-width=".05" fill="#e81313"/><use xlink:href="#I" transform="matrix(1,0,0,1,2693.015280485233,5762.333333333333) translate(0 24.888888888888893)"/><path d="M2394.95 5479.52v4.95h-4.35v-4.95zm-72.36 2.95v-4.95h26.7v4.95z" stroke="#e81313" stroke-width=".05" fill="#e81313"/><path d="M2322.66 5482.48h-2.94l.27-1.14.1-1.34-.1-1.34-.28-1.14h2.94z" fill="#e81313"/><path stroke="#e81313" stroke-width=".05" fill="#e81313"/><path d="M2411.72 5482l-14.27 4.64v-9.28z" fill="#e81313"/><path d="M2419.72 5482l-24.75 8.04v-16.08zm-19.8 1.23l3.8-1.23-3.8-1.23z" stroke="#e81313" stroke-width=".05" fill="#e81313"/><g><use xlink:href="#I" transform="matrix(1,0,0,1,2349.2937661643055,5462.333333333333) translate(0 24.888888888888893)"/></g><path d="M2679.7 5484.48v-4.95h19.35v4.95z" stroke="#008a0e" stroke-width=".05" fill="#008a0e"/><path d="M2679.75 5484.48h-2.92l.26-1.14.1-1.34-.1-1.34-.26-1.14h2.9z" fill="#008a0e"/><path stroke="#008a0e" stroke-width=".05" fill="#008a0e"/><path d="M2766.4 5484l-13.77 4.48v-8.95z" fill="#008a0e"/><path d="M2774.4 5484l-21.77 7.08v-14.16zm-19.8 1.23l3.8-1.23-3.8-1.23z" stroke="#008a0e" stroke-width=".05" fill="#008a0e"/><g><use xlink:href="#A" transform="matrix(1,0,0,1,2699.0503164220813,5464.333333333333) translate(0 24.888888888888893)"/></g><path d="M1203.47 6052.9l.06.65.13.54.2.5.3.47.35.42.43.35.47.28.5.22.55.12.65.05h2028.3l.65-.05.53-.13.5-.2.48-.3.42-.35.36-.43.3-.47.2-.5.13-.55.05-.65v-265.8l-.05-.65-.13-.54-.2-.5-.3-.47-.36-.42-.42-.35-.47-.28-.52-.22-.53-.12-.65-.05h-29.9v-4.95h30.1l1.22.1 1.3.3 1.23.5 1.13.7 1 .87.88 1 .7 1.15.5 1.23.32 1.3.1 1.22v266.2l-.1 1.23-.32 1.3-.5 1.22-.7 1.14-.87 1-1.02.86-1.13.7-1.23.5-1.3.32-1.23.1H1206.9l-1.23-.1-1.3-.3-1.22-.52-1.14-.7-1-.86-.86-1-.7-1.15-.5-1.23-.32-1.3-.1-1.22v-473.74h4.95z" stroke="#3a414a" stroke-width=".05" fill="#3a414a"/><path d="M3205.56 5783.48H3203v-4.95h2.56z" fill="#3a414a"/><path stroke="#3a414a" stroke-width=".05" fill="#3a414a"/><path d="M1205.63 5576.86h-9.27l4.64-14.27z" fill="#3a414a"/><path d="M1209.04 5579.33h-16.08l8.04-24.75zm-9.27-4.95h2.46l-1.23-3.78z" stroke="#3a414a" stroke-width=".05" fill="#3a414a"/><path d="M3038.5 5726a6 6 0 0 1 6-6h150a6 6 0 0 1 6 6v110a6 6 0 0 1-6 6h-150a6 6 0 0 1-6-6z" stroke="#85b689" stroke-width="5" fill="#b1d5b4"/><g><use xlink:href="#J" transform="matrix(1,0,0,1,3050.4964506170695,5732) translate(6.864197530864196 36.55555555555555)"/><use xlink:href="#K" transform="matrix(1,0,0,1,3050.4964506170695,5732) translate(-3.4197530864197603 73.88888888888889)"/></g><path d="M2944 5484h67.14" stroke="#3a414a" stroke-width="5" fill="none"/><path d="M2944.06 5486.48h-2.57v-4.95h2.56z" stroke="#3a414a" stroke-width=".05" fill="#3a414a"/><path d="M3027.9 5484l-14.26 4.64v-9.28z" stroke="#3a414a" stroke-width="5" fill="#3a414a"/><path d="M3205.5 5484h27.14" stroke="#3a414a" stroke-width="5" fill="none"/><path d="M3205.56 5486.48H3203v-4.95h2.56z" stroke="#3a414a" stroke-width=".05" fill="#3a414a"/><path d="M3249.4 5484l-14.26 4.64v-9.28z" stroke="#3a414a" stroke-width="5" fill="#3a414a"/><path d="M3485 5484h27.15" stroke="#3a414a" stroke-width="5" fill="none"/><path d="M3485.06 5486.48h-2.56v-4.95h2.56z" stroke="#3a414a" stroke-width=".05" fill="#3a414a"/><path d="M3528.9 5484l-14.25 4.64v-9.28z" stroke="#3a414a" stroke-width="5" fill="#3a414a"/><defs><path fill="#3a414a" d="M185-189c-5-48-123-54-124 2 14 75 158 14 163 119 3 78-121 87-175 55-17-10-28-26-33-46l33-7c5 56 141 63 141-1 0-78-155-14-162-118-5-82 145-84 179-34 5 7 8 16 11 25" id="L"/><path fill="#3a414a" d="M59-47c-2 24 18 29 38 22v24C64 9 27 4 27-40v-127H5v-23h24l9-43h21v43h35v23H59v120" id="M"/><path fill="#3a414a" d="M141-36C126-15 110 5 73 4 37 3 15-17 15-53c-1-64 63-63 125-63 3-35-9-54-41-54-24 1-41 7-42 31l-33-3c5-37 33-52 76-52 45 0 72 20 72 64v82c-1 20 7 32 28 27v20c-31 9-61-2-59-35zM48-53c0 20 12 33 32 33 41-3 63-29 60-74-43 2-92-5-92 41" id="N"/><path fill="#3a414a" d="M114-163C36-179 61-72 57 0H25l-1-190h30c1 12-1 29 2 39 6-27 23-49 58-41v29" id="O"/><g id="a"><use transform="matrix(0.08641975308641976,0,0,0.08641975308641976,0,0)" xlink:href="#L"/><use transform="matrix(0.08641975308641976,0,0,0.08641975308641976,20.740740740740744,0)" xlink:href="#M"/><use transform="matrix(0.08641975308641976,0,0,0.08641975308641976,29.382716049382726,0)" xlink:href="#N"/><use transform="matrix(0.08641975308641976,0,0,0.08641975308641976,46.66666666666667,0)" xlink:href="#O"/><use transform="matrix(0.08641975308641976,0,0,0.08641975308641976,56.95061728395062,0)" xlink:href="#M"/></g><path fill="#3a414a" d="M30-248c118-7 216 8 213 122C240-48 200 0 122 0H30v-248zM63-27c89 8 146-16 146-99s-60-101-146-95v194" id="P"/><path fill="#3a414a" d="M100-194c63 0 86 42 84 106H49c0 40 14 67 53 68 26 1 43-12 49-29l28 8c-11 28-37 45-77 45C44 4 14-33 15-96c1-61 26-98 85-98zm52 81c6-60-76-77-97-28-3 7-6 17-6 28h103" id="Q"/><path fill="#3a414a" d="M210-169c-67 3-38 105-44 169h-31v-121c0-29-5-50-35-48C34-165 62-65 56 0H25l-1-190h30c1 10-1 24 2 32 10-44 99-50 107 0 11-21 27-35 58-36 85-2 47 119 55 194h-31v-121c0-29-5-49-35-48" id="R"/><path fill="#3a414a" d="M24-231v-30h32v30H24zM24 0v-190h32V0H24" id="S"/><path fill="#3a414a" d="M117-194c89-4 53 116 60 194h-32v-121c0-31-8-49-39-48C34-167 62-67 57 0H25l-1-190h30c1 10-1 24 2 32 11-22 29-35 61-36" id="T"/><g id="b"><use transform="matrix(0.08641975308641976,0,0,0.08641975308641976,0,0)" xlink:href="#P"/><use transform="matrix(0.08641975308641976,0,0,0.08641975308641976,22.38271604938272,0)" xlink:href="#Q"/><use transform="matrix(0.08641975308641976,0,0,0.08641975308641976,39.66666666666667,0)" xlink:href="#M"/><use transform="matrix(0.08641975308641976,0,0,0.08641975308641976,48.308641975308646,0)" xlink:href="#Q"/><use transform="matrix(0.08641975308641976,0,0,0.08641975308641976,65.5925925925926,0)" xlink:href="#O"/><use transform="matrix(0.08641975308641976,0,0,0.08641975308641976,75.87654320987654,0)" xlink:href="#R"/><use transform="matrix(0.08641975308641976,0,0,0.08641975308641976,101.71604938271606,0)" xlink:href="#S"/><use transform="matrix(0.08641975308641976,0,0,0.08641975308641976,108.54320987654322,0)" xlink:href="#T"/><use transform="matrix(0.08641975308641976,0,0,0.08641975308641976,125.82716049382718,0)" xlink:href="#Q"/></g><path fill="#3a414a" d="M30 0v-248h187v28H63v79h144v27H63v87h162V0H30" id="U"/><path fill="#3a414a" d="M115-194c55 1 70 41 70 98S169 2 115 4C84 4 66-9 55-30l1 105H24l-1-265h31l2 30c10-21 28-34 59-34zm-8 174c40 0 45-34 45-75s-6-73-45-74c-42 0-51 32-51 76 0 43 10 73 51 73" id="V"/><path fill="#3a414a" d="M135-143c-3-34-86-38-87 0 15 53 115 12 119 90S17 21 10-45l28-5c4 36 97 45 98 0-10-56-113-15-118-90-4-57 82-63 122-42 12 7 21 19 24 35" id="W"/><path fill="#3a414a" d="M100-194c62-1 85 37 85 99 1 63-27 99-86 99S16-35 15-95c0-66 28-99 85-99zM99-20c44 1 53-31 53-75 0-43-8-75-51-75s-53 32-53 75 10 74 51 75" id="X"/><path fill="#3a414a" d="M85-194c31 0 48 13 60 33l-1-100h32l1 261h-30c-2-10 0-23-3-31C134-8 116 4 85 4 32 4 16-35 15-94c0-66 23-100 70-100zm9 24c-40 0-46 34-46 75 0 40 6 74 45 74 42 0 51-32 51-76 0-42-9-74-50-73" id="Y"/><g id="c"><use transform="matrix(0.08641975308641976,0,0,0.08641975308641976,0,0)" xlink:href="#U"/><use transform="matrix(0.08641975308641976,0,0,0.08641975308641976,20.740740740740744,0)" xlink:href="#V"/><use transform="matrix(0.08641975308641976,0,0,0.08641975308641976,38.0246913580247,0)" xlink:href="#S"/><use transform="matrix(0.08641975308641976,0,0,0.08641975308641976,44.85185185185187,0)" xlink:href="#W"/><use transform="matrix(0.08641975308641976,0,0,0.08641975308641976,60.407407407407426,0)" xlink:href="#X"/><use transform="matrix(0.08641975308641976,0,0,0.08641975308641976,77.69135802469137,0)" xlink:href="#Y"/><use transform="matrix(0.08641975308641976,0,0,0.08641975308641976,94.97530864197532,0)" xlink:href="#Q"/></g><path fill="#3a414a" d="M30 0v-248h33v221h125V0H30" id="Z"/><path fill="#3a414a" d="M177-190C167-65 218 103 67 71c-23-6-38-20-44-43l32-5c15 47 100 32 89-28v-30C133-14 115 1 83 1 29 1 15-40 15-95c0-56 16-97 71-98 29-1 48 16 59 35 1-10 0-23 2-32h30zM94-22c36 0 50-32 50-73 0-42-14-75-50-75-39 0-46 34-46 75s6 73 46 73" id="aa"/><path fill="#3a414a" d="M106-169C34-169 62-67 57 0H25v-261h32l-1 103c12-21 28-36 61-36 89 0 53 116 60 194h-32v-121c2-32-8-49-39-48" id="ab"/><g id="d"><use transform="matrix(0.08641975308641976,0,0,0.08641975308641976,0,0)" xlink:href="#Z"/><use transform="matrix(0.08641975308641976,0,0,0.08641975308641976,17.283950617283953,0)" xlink:href="#Q"/><use transform="matrix(0.08641975308641976,0,0,0.08641975308641976,34.567901234567906,0)" xlink:href="#T"/><use transform="matrix(0.08641975308641976,0,0,0.08641975308641976,51.851851851851855,0)" xlink:href="#aa"/><use transform="matrix(0.08641975308641976,0,0,0.08641975308641976,69.13580246913581,0)" xlink:href="#M"/><use transform="matrix(0.08641975308641976,0,0,0.08641975308641976,77.77777777777779,0)" xlink:href="#ab"/></g><g id="e"><use transform="matrix(0.08641975308641976,0,0,0.08641975308641976,0,0)" xlink:href="#L"/><use transform="matrix(0.08641975308641976,0,0,0.08641975308641976,20.740740740740744,0)" xlink:href="#M"/><use transform="matrix(0.08641975308641976,0,0,0.08641975308641976,29.382716049382726,0)" xlink:href="#Q"/><use transform="matrix(0.08641975308641976,0,0,0.08641975308641976,46.66666666666667,0)" xlink:href="#V"/><use transform="matrix(0.08641975308641976,0,0,0.08641975308641976,63.95061728395062,0)" xlink:href="#W"/></g><path fill="#3a414a" d="M18-27v-27l151-64-151-65v-27l175 74v36" id="ac"/><path fill="#3a414a" d="M18-150v-26h174v26H18zm0 90v-26h174v26H18" id="ad"/><g id="f"><use transform="matrix(0.08641975308641976,0,0,0.08641975308641976,0,0)" xlink:href="#ac"/><use transform="matrix(0.08641975308641976,0,0,0.08641975308641976,18.14814814814815,0)" xlink:href="#ad"/></g><path fill="#3a414a" d="M240 0l2-218c-23 76-54 145-80 218h-23L58-218 59 0H30v-248h44l77 211c21-75 51-140 76-211h43V0h-30" id="ae"/><path fill="#3a414a" d="M141 0L90-78 38 0H4l68-98-65-92h35l48 74 47-74h35l-64 92 68 98h-35" id="af"/><g id="g"><use transform="matrix(0.08641975308641976,0,0,0.08641975308641976,0,0)" xlink:href="#ae"/><use transform="matrix(0.08641975308641976,0,0,0.08641975308641976,25.83950617283951,0)" xlink:href="#N"/><use transform="matrix(0.08641975308641976,0,0,0.08641975308641976,43.12345679012346,0)" xlink:href="#af"/></g><g id="h"><use transform="matrix(0.08641975308641976,0,0,0.08641975308641976,0,0)" xlink:href="#L"/><use transform="matrix(0.08641975308641976,0,0,0.08641975308641976,20.740740740740744,0)" xlink:href="#M"/><use transform="matrix(0.08641975308641976,0,0,0.08641975308641976,29.382716049382726,0)" xlink:href="#Q"/><use transform="matrix(0.08641975308641976,0,0,0.08641975308641976,46.66666666666667,0)" xlink:href="#V"/><use transform="matrix(0.08641975308641976,0,0,0.08641975308641976,63.95061728395062,0)" xlink:href="#W"/></g><g id="i"><use transform="matrix(0.08641975308641976,0,0,0.08641975308641976,0,0)" xlink:href="#U"/><use transform="matrix(0.08641975308641976,0,0,0.08641975308641976,20.740740740740744,0)" xlink:href="#T"/><use transform="matrix(0.08641975308641976,0,0,0.08641975308641976,38.0246913580247,0)" xlink:href="#Y"/></g><path fill="#3a414a" d="M212-179c-10-28-35-45-73-45-59 0-87 40-87 99 0 60 29 101 89 101 43 0 62-24 78-52l27 14C228-24 195 4 139 4 59 4 22-46 18-125c-6-104 99-153 187-111 19 9 31 26 39 46" id="ag"/><path fill="#3a414a" d="M96-169c-40 0-48 33-48 73s9 75 48 75c24 0 41-14 43-38l32 2c-6 37-31 61-74 61-59 0-76-41-82-99-10-93 101-131 147-64 4 7 5 14 7 22l-32 3c-4-21-16-35-41-35" id="ah"/><path fill="#3a414a" d="M143 0L79-87 56-68V0H24v-261h32v163l83-92h37l-77 82L181 0h-38" id="ai"/><g id="j"><use transform="matrix(0.08641975308641976,0,0,0.08641975308641976,0,0)" xlink:href="#ag"/><use transform="matrix(0.08641975308641976,0,0,0.08641975308641976,22.38271604938272,0)" xlink:href="#ab"/><use transform="matrix(0.08641975308641976,0,0,0.08641975308641976,39.66666666666667,0)" xlink:href="#Q"/><use transform="matrix(0.08641975308641976,0,0,0.08641975308641976,56.95061728395062,0)" xlink:href="#ah"/><use transform="matrix(0.08641975308641976,0,0,0.08641975308641976,72.50617283950618,0)" xlink:href="#ai"/></g><g id="k"><use transform="matrix(0.08641975308641976,0,0,0.08641975308641976,0,0)" xlink:href="#ag"/><use transform="matrix(0.08641975308641976,0,0,0.08641975308641976,22.38271604938272,0)" xlink:href="#O"/><use transform="matrix(0.08641975308641976,0,0,0.08641975308641976,32.66666666666667,0)" xlink:href="#X"/><use transform="matrix(0.08641975308641976,0,0,0.08641975308641976,49.95061728395062,0)" xlink:href="#V"/></g><path fill="#3a414a" d="M140-251c81 0 123 46 123 126C263-53 228-8 163 1c7 30 30 48 69 40v23c-55 16-95-15-103-61C56-3 17-48 17-125c0-80 42-126 123-126zm0 227c63 0 89-41 89-101s-29-99-89-99c-61 0-89 39-89 99S79-25 140-24" id="aj"/><path fill="#3a414a" d="M84 4C-5 8 30-112 23-190h32v120c0 31 7 50 39 49 72-2 45-101 50-169h31l1 190h-30c-1-10 1-25-2-33-11 22-28 36-60 37" id="ak"/><path fill="#3a414a" d="M24 0v-261h32V0H24" id="al"/><path fill="#3a414a" d="M179-190L93 31C79 59 56 82 12 73V49c39 6 53-20 64-50L1-190h34L92-34l54-156h33" id="am"/><g id="l"><use transform="matrix(0.08641975308641976,0,0,0.08641975308641976,0,0)" xlink:href="#aj"/><use transform="matrix(0.08641975308641976,0,0,0.08641975308641976,24.19753086419753,0)" xlink:href="#ak"/><use transform="matrix(0.08641975308641976,0,0,0.08641975308641976,41.48148148148148,0)" xlink:href="#N"/><use transform="matrix(0.08641975308641976,0,0,0.08641975308641976,58.76543209876543,0)" xlink:href="#al"/><use transform="matrix(0.08641975308641976,0,0,0.08641975308641976,65.5925925925926,0)" xlink:href="#S"/><use transform="matrix(0.08641975308641976,0,0,0.08641975308641976,72.41975308641976,0)" xlink:href="#M"/><use transform="matrix(0.08641975308641976,0,0,0.08641975308641976,81.06172839506173,0)" xlink:href="#am"/></g><path fill="#3a414a" d="M18-100v-36l175-74v27L42-118l151 64v27" id="an"/><use transform="matrix(0.08641975308641976,0,0,0.08641975308641976,0,0)" xlink:href="#an" id="m"/><path fill="#3a414a" d="M101-251c68 0 85 55 85 127S166 4 100 4C33 4 14-52 14-124c0-73 17-127 87-127zm-1 229c47 0 54-49 54-102s-4-102-53-102c-51 0-55 48-55 102 0 53 5 102 54 102" id="ao"/><path fill="#3a414a" d="M33 0v-38h34V0H33" id="ap"/><path fill="#3a414a" d="M101-251c82-7 93 87 43 132L82-64C71-53 59-42 53-27h129V0H18c2-99 128-94 128-182 0-28-16-43-45-43s-46 15-49 41l-32-3c6-41 34-60 81-64" id="aq"/><g id="n"><use transform="matrix(0.08641975308641976,0,0,0.08641975308641976,0,0)" xlink:href="#ao"/><use transform="matrix(0.08641975308641976,0,0,0.08641975308641976,17.283950617283953,0)" xlink:href="#ap"/><use transform="matrix(0.08641975308641976,0,0,0.08641975308641976,25.925925925925927,0)" xlink:href="#aq"/></g><path fill="#3a414a" d="M197 0v-115H63V0H30v-248h33v105h134v-105h34V0h-34" id="ar"/><g id="o"><use transform="matrix(0.08641975308641976,0,0,0.08641975308641976,0,0)" xlink:href="#ar"/><use transform="matrix(0.08641975308641976,0,0,0.08641975308641976,22.38271604938272,0)" xlink:href="#S"/><use transform="matrix(0.08641975308641976,0,0,0.08641975308641976,29.20987654320988,0)" xlink:href="#aa"/><use transform="matrix(0.08641975308641976,0,0,0.08641975308641976,46.49382716049383,0)" xlink:href="#ab"/></g><path fill="#3a414a" d="M233-177c-1 41-23 64-60 70L243 0h-38l-65-103H63V0H30v-248c88 3 205-21 203 71zM63-129c60-2 137 13 137-47 0-61-80-42-137-45v92" id="as"/><g id="p"><use transform="matrix(0.08641975308641976,0,0,0.08641975308641976,0,0)" xlink:href="#as"/><use transform="matrix(0.08641975308641976,0,0,0.08641975308641976,22.38271604938272,0)" xlink:href="#Q"/><use transform="matrix(0.08641975308641976,0,0,0.08641975308641976,39.66666666666667,0)" xlink:href="#W"/><use transform="matrix(0.08641975308641976,0,0,0.08641975308641976,55.22222222222223,0)" xlink:href="#X"/><use transform="matrix(0.08641975308641976,0,0,0.08641975308641976,72.50617283950618,0)" xlink:href="#ak"/><use transform="matrix(0.08641975308641976,0,0,0.08641975308641976,89.79012345679013,0)" xlink:href="#O"/><use transform="matrix(0.08641975308641976,0,0,0.08641975308641976,100.07407407407409,0)" xlink:href="#ah"/><use transform="matrix(0.08641975308641976,0,0,0.08641975308641976,115.62962962962965,0)" xlink:href="#Q"/></g><g id="q"><use transform="matrix(0.08641975308641976,0,0,0.08641975308641976,0,0)" xlink:href="#ag"/><use transform="matrix(0.08641975308641976,0,0,0.08641975308641976,22.38271604938272,0)" xlink:href="#X"/><use transform="matrix(0.08641975308641976,0,0,0.08641975308641976,39.66666666666667,0)" xlink:href="#T"/><use transform="matrix(0.08641975308641976,0,0,0.08641975308641976,56.95061728395062,0)" xlink:href="#W"/><use transform="matrix(0.08641975308641976,0,0,0.08641975308641976,72.50617283950618,0)" xlink:href="#ak"/><use transform="matrix(0.08641975308641976,0,0,0.08641975308641976,89.79012345679013,0)" xlink:href="#R"/><use transform="matrix(0.08641975308641976,0,0,0.08641975308641976,115.62962962962965,0)" xlink:href="#V"/><use transform="matrix(0.08641975308641976,0,0,0.08641975308641976,132.9135802469136,0)" xlink:href="#M"/><use transform="matrix(0.08641975308641976,0,0,0.08641975308641976,141.55555555555557,0)" xlink:href="#S"/><use transform="matrix(0.08641975308641976,0,0,0.08641975308641976,148.38271604938274,0)" xlink:href="#X"/><use transform="matrix(0.08641975308641976,0,0,0.08641975308641976,165.66666666666669,0)" xlink:href="#T"/></g><use transform="matrix(0.08641975308641976,0,0,0.08641975308641976,0,0)" xlink:href="#ac" id="s"/><path fill="#3a414a" d="M64 0c3-98 48-159 88-221H18v-27h164v26C143-157 98-101 97 0H64" id="at"/><use transform="matrix(0.08641975308641976,0,0,0.08641975308641976,0,0)" xlink:href="#at" id="t"/><path fill="#3a414a" d="M30-248c87 1 191-15 191 75 0 78-77 80-158 76V0H30v-248zm33 125c57 0 124 11 124-50 0-59-68-47-124-48v98" id="au"/><path fill="#3a414a" d="M101-234c-31-9-42 10-38 44h38v23H63V0H32v-167H5v-23h27c-7-52 17-82 69-68v24" id="av"/><g id="u"><use transform="matrix(0.08641975308641976,0,0,0.08641975308641976,0,0)" xlink:href="#au"/><use transform="matrix(0.08641975308641976,0,0,0.08641975308641976,20.740740740740744,0)" xlink:href="#Q"/><use transform="matrix(0.08641975308641976,0,0,0.08641975308641976,38.0246913580247,0)" xlink:href="#O"/><use transform="matrix(0.08641975308641976,0,0,0.08641975308641976,48.308641975308646,0)" xlink:href="#av"/><use transform="matrix(0.08641975308641976,0,0,0.08641975308641976,56.95061728395062,0)" xlink:href="#X"/><use transform="matrix(0.08641975308641976,0,0,0.08641975308641976,74.23456790123457,0)" xlink:href="#O"/><use transform="matrix(0.08641975308641976,0,0,0.08641975308641976,84.51851851851852,0)" xlink:href="#R"/></g><path fill="#3a414a" d="M140-251c81 0 123 46 123 126C263-46 219 4 140 4 59 4 17-45 17-125s42-126 123-126zm0 227c63 0 89-41 89-101s-29-99-89-99c-61 0-89 39-89 99S79-25 140-24" id="aw"/><path fill="#3a414a" d="M108 0H70L1-190h34L89-25l56-165h34" id="ax"/><g id="v"><use transform="matrix(0.08641975308641976,0,0,0.08641975308641976,0,0)" xlink:href="#aw"/><use transform="matrix(0.08641975308641976,0,0,0.08641975308641976,24.19753086419753,0)" xlink:href="#ax"/><use transform="matrix(0.08641975308641976,0,0,0.08641975308641976,39.75308641975309,0)" xlink:href="#Q"/><use transform="matrix(0.08641975308641976,0,0,0.08641975308641976,57.03703703703703,0)" xlink:href="#O"/><use transform="matrix(0.08641975308641976,0,0,0.08641975308641976,67.32098765432099,0)" xlink:href="#N"/><use transform="matrix(0.08641975308641976,0,0,0.08641975308641976,84.60493827160494,0)" xlink:href="#al"/><use transform="matrix(0.08641975308641976,0,0,0.08641975308641976,91.4320987654321,0)" xlink:href="#al"/></g><g id="w"><use transform="matrix(0.08641975308641976,0,0,0.08641975308641976,0,0)" xlink:href="#ag"/><use transform="matrix(0.08641975308641976,0,0,0.08641975308641976,22.38271604938272,0)" xlink:href="#O"/><use transform="matrix(0.08641975308641976,0,0,0.08641975308641976,32.66666666666667,0)" xlink:href="#X"/><use transform="matrix(0.08641975308641976,0,0,0.08641975308641976,49.95061728395062,0)" xlink:href="#V"/></g><g id="x"><use transform="matrix(0.08641975308641976,0,0,0.08641975308641976,0,0)" xlink:href="#ag"/><use transform="matrix(0.08641975308641976,0,0,0.08641975308641976,22.38271604938272,0)" xlink:href="#ab"/><use transform="matrix(0.08641975308641976,0,0,0.08641975308641976,39.66666666666667,0)" xlink:href="#Q"/><use transform="matrix(0.08641975308641976,0,0,0.08641975308641976,56.95061728395062,0)" xlink:href="#ah"/><use transform="matrix(0.08641975308641976,0,0,0.08641975308641976,72.50617283950618,0)" xlink:href="#ai"/></g><use transform="matrix(0.08641975308641976,0,0,0.08641975308641976,0,0)" xlink:href="#an" id="y"/><path fill="#3a414a" d="M54-142c48-35 137-8 131 61C196 18 31 33 14-55l32-4c7 23 22 37 52 37 35-1 51-22 54-58 4-55-73-65-99-34H22l8-134h141v27H59" id="ay"/><g id="z"><use transform="matrix(0.08641975308641976,0,0,0.08641975308641976,0,0)" xlink:href="#ao"/><use transform="matrix(0.08641975308641976,0,0,0.08641975308641976,17.283950617283953,0)" xlink:href="#ap"/><use transform="matrix(0.08641975308641976,0,0,0.08641975308641976,25.925925925925927,0)" xlink:href="#ay"/></g><path fill="#3a414a" d="M146-102V0H94v-102L6-248h54l60 105 60-105h54" id="az"/><path fill="#3a414a" d="M185-48c-13 30-37 53-82 52C43 2 14-33 14-96s30-98 90-98c62 0 83 45 84 108H66c0 31 8 55 39 56 18 0 30-7 34-22zm-45-69c5-46-57-63-70-21-2 6-4 13-4 21h74" id="aA"/><path fill="#3a414a" d="M137-138c1-29-70-34-71-4 15 46 118 7 119 86 1 83-164 76-172 9l43-7c4 19 20 25 44 25 33 8 57-30 24-41C81-84 22-81 20-136c-2-80 154-74 161-7" id="aB"/><g id="A"><use transform="matrix(0.08641975308641976,0,0,0.08641975308641976,0,0)" xlink:href="#az"/><use transform="matrix(0.08641975308641976,0,0,0.08641975308641976,19.01234567901235,0)" xlink:href="#aA"/><use transform="matrix(0.08641975308641976,0,0,0.08641975308641976,36.296296296296305,0)" xlink:href="#aB"/></g><path fill="#3a414a" d="M205 0l-28-72H64L36 0H1l101-248h38L239 0h-34zm-38-99l-47-123c-12 45-31 82-46 123h93" id="aC"/><g id="B"><use transform="matrix(0.08641975308641976,0,0,0.08641975308641976,0,0)" xlink:href="#aC"/><use transform="matrix(0.08641975308641976,0,0,0.08641975308641976,20.740740740740744,0)" xlink:href="#aa"/><use transform="matrix(0.08641975308641976,0,0,0.08641975308641976,38.0246913580247,0)" xlink:href="#Q"/><use transform="matrix(0.08641975308641976,0,0,0.08641975308641976,55.308641975308646,0)" xlink:href="#T"/><use transform="matrix(0.08641975308641976,0,0,0.08641975308641976,72.5925925925926,0)" xlink:href="#M"/></g><g id="C"><use transform="matrix(0.08641975308641976,0,0,0.08641975308641976,0,0)" xlink:href="#as"/><use transform="matrix(0.08641975308641976,0,0,0.08641975308641976,22.38271604938272,0)" xlink:href="#Q"/><use transform="matrix(0.08641975308641976,0,0,0.08641975308641976,39.66666666666667,0)" xlink:href="#ah"/><use transform="matrix(0.08641975308641976,0,0,0.08641975308641976,55.22222222222223,0)" xlink:href="#Q"/><use transform="matrix(0.08641975308641976,0,0,0.08641975308641976,72.50617283950618,0)" xlink:href="#S"/><use transform="matrix(0.08641975308641976,0,0,0.08641975308641976,79.33333333333334,0)" xlink:href="#ax"/><use transform="matrix(0.08641975308641976,0,0,0.08641975308641976,94.8888888888889,0)" xlink:href="#Q"/><use transform="matrix(0.08641975308641976,0,0,0.08641975308641976,112.17283950617285,0)" xlink:href="#W"/></g><path fill="#3a414a" d="M63-220v92h138v28H63V0H30v-248h175v28H63" id="aD"/><path fill="#3a414a" d="M115-194c53 0 69 39 70 98 0 66-23 100-70 100C84 3 66-7 56-30L54 0H23l1-261h32v101c10-23 28-34 59-34zm-8 174c40 0 45-34 45-75 0-40-5-75-45-74-42 0-51 32-51 76 0 43 10 73 51 73" id="aE"/><g id="D"><use transform="matrix(0.08641975308641976,0,0,0.08641975308641976,0,0)" xlink:href="#aD"/><use transform="matrix(0.08641975308641976,0,0,0.08641975308641976,18.925925925925927,0)" xlink:href="#Q"/><use transform="matrix(0.08641975308641976,0,0,0.08641975308641976,36.20987654320988,0)" xlink:href="#Q"/><use transform="matrix(0.08641975308641976,0,0,0.08641975308641976,53.49382716049383,0)" xlink:href="#Y"/><use transform="matrix(0.08641975308641976,0,0,0.08641975308641976,70.77777777777779,0)" xlink:href="#aE"/><use transform="matrix(0.08641975308641976,0,0,0.08641975308641976,88.06172839506173,0)" xlink:href="#N"/><use transform="matrix(0.08641975308641976,0,0,0.08641975308641976,105.34567901234568,0)" xlink:href="#ah"/><use transform="matrix(0.08641975308641976,0,0,0.08641975308641976,120.90123456790124,0)" xlink:href="#ai"/></g><path fill="#3a414a" d="M9 0v-24l116-142H16v-24h144v24L44-24h123V0H9" id="aF"/><g id="E"><use transform="matrix(0.08641975308641976,0,0,0.08641975308641976,0,0)" xlink:href="#aw"/><use transform="matrix(0.08641975308641976,0,0,0.08641975308641976,24.19753086419753,0)" xlink:href="#V"/><use transform="matrix(0.08641975308641976,0,0,0.08641975308641976,41.48148148148148,0)" xlink:href="#M"/><use transform="matrix(0.08641975308641976,0,0,0.08641975308641976,50.123456790123456,0)" xlink:href="#S"/><use transform="matrix(0.08641975308641976,0,0,0.08641975308641976,56.95061728395062,0)" xlink:href="#R"/><use transform="matrix(0.08641975308641976,0,0,0.08641975308641976,82.79012345679013,0)" xlink:href="#S"/><use transform="matrix(0.08641975308641976,0,0,0.08641975308641976,89.61728395061729,0)" xlink:href="#aF"/><use transform="matrix(0.08641975308641976,0,0,0.08641975308641976,105.17283950617285,0)" xlink:href="#Q"/><use transform="matrix(0.08641975308641976,0,0,0.08641975308641976,122.4567901234568,0)" xlink:href="#W"/></g><g id="F"><use transform="matrix(0.08641975308641976,0,0,0.08641975308641976,0,0)" xlink:href="#Z"/><use transform="matrix(0.08641975308641976,0,0,0.08641975308641976,17.283950617283953,0)" xlink:href="#Q"/><use transform="matrix(0.08641975308641976,0,0,0.08641975308641976,34.567901234567906,0)" xlink:href="#N"/><use transform="matrix(0.08641975308641976,0,0,0.08641975308641976,51.851851851851855,0)" xlink:href="#O"/><use transform="matrix(0.08641975308641976,0,0,0.08641975308641976,62.13580246913581,0)" xlink:href="#T"/><use transform="matrix(0.08641975308641976,0,0,0.08641975308641976,79.41975308641976,0)" xlink:href="#S"/><use transform="matrix(0.08641975308641976,0,0,0.08641975308641976,86.24691358024693,0)" xlink:href="#T"/><use transform="matrix(0.08641975308641976,0,0,0.08641975308641976,103.53086419753087,0)" xlink:href="#aa"/></g><g id="G"><use transform="matrix(0.08641975308641976,0,0,0.08641975308641976,0,0)" xlink:href="#av"/><use transform="matrix(0.08641975308641976,0,0,0.08641975308641976,8.641975308641976,0)" xlink:href="#O"/><use transform="matrix(0.08641975308641976,0,0,0.08641975308641976,18.925925925925927,0)" xlink:href="#X"/><use transform="matrix(0.08641975308641976,0,0,0.08641975308641976,36.20987654320988,0)" xlink:href="#R"/></g><g id="H"><use transform="matrix(0.08641975308641976,0,0,0.08641975308641976,0,0)" xlink:href="#aC"/><use transform="matrix(0.08641975308641976,0,0,0.08641975308641976,20.740740740740744,0)" xlink:href="#ah"/><use transform="matrix(0.08641975308641976,0,0,0.08641975308641976,36.296296296296305,0)" xlink:href="#M"/><use transform="matrix(0.08641975308641976,0,0,0.08641975308641976,44.93827160493828,0)" xlink:href="#S"/><use transform="matrix(0.08641975308641976,0,0,0.08641975308641976,51.765432098765444,0)" xlink:href="#X"/><use transform="matrix(0.08641975308641976,0,0,0.08641975308641976,69.0493827160494,0)" xlink:href="#T"/><use transform="matrix(0.08641975308641976,0,0,0.08641975308641976,86.33333333333334,0)" xlink:href="#W"/></g><path fill="#3a414a" d="M175 0L67-191c6 58 2 128 3 191H24v-248h59L193-55c-6-58-2-129-3-193h46V0h-61" id="aG"/><path fill="#3a414a" d="M110-194c64 0 96 36 96 99 0 64-35 99-97 99-61 0-95-36-95-99 0-62 34-99 96-99zm-1 164c35 0 45-28 45-65 0-40-10-65-43-65-34 0-45 26-45 65 0 36 10 65 43 65" id="aH"/><g id="I"><use transform="matrix(0.08641975308641976,0,0,0.08641975308641976,0,0)" xlink:href="#aG"/><use transform="matrix(0.08641975308641976,0,0,0.08641975308641976,22.38271604938272,0)" xlink:href="#aH"/></g><g id="J"><use transform="matrix(0.08641975308641976,0,0,0.08641975308641976,0,0)" xlink:href="#ag"/><use transform="matrix(0.08641975308641976,0,0,0.08641975308641976,22.38271604938272,0)" xlink:href="#X"/><use transform="matrix(0.08641975308641976,0,0,0.08641975308641976,39.66666666666667,0)" xlink:href="#T"/><use transform="matrix(0.08641975308641976,0,0,0.08641975308641976,56.95061728395062,0)" xlink:href="#M"/><use transform="matrix(0.08641975308641976,0,0,0.08641975308641976,65.5925925925926,0)" xlink:href="#S"/><use transform="matrix(0.08641975308641976,0,0,0.08641975308641976,72.41975308641976,0)" xlink:href="#T"/><use transform="matrix(0.08641975308641976,0,0,0.08641975308641976,89.70370370370371,0)" xlink:href="#ak"/><use transform="matrix(0.08641975308641976,0,0,0.08641975308641976,106.98765432098766,0)" xlink:href="#Q"/></g><g id="K"><use transform="matrix(0.08641975308641976,0,0,0.08641975308641976,0,0)" xlink:href="#L"/><use transform="matrix(0.08641975308641976,0,0,0.08641975308641976,20.740740740740744,0)" xlink:href="#S"/><use transform="matrix(0.08641975308641976,0,0,0.08641975308641976,27.567901234567906,0)" xlink:href="#R"/><use transform="matrix(0.08641975308641976,0,0,0.08641975308641976,53.407407407407426,0)" xlink:href="#ak"/><use transform="matrix(0.08641975308641976,0,0,0.08641975308641976,70.69135802469137,0)" xlink:href="#al"/><use transform="matrix(0.08641975308641976,0,0,0.08641975308641976,77.51851851851853,0)" xlink:href="#N"/><use transform="matrix(0.08641975308641976,0,0,0.08641975308641976,94.80246913580248,0)" xlink:href="#M"/><use transform="matrix(0.08641975308641976,0,0,0.08641975308641976,103.44444444444446,0)" xlink:href="#S"/><use transform="matrix(0.08641975308641976,0,0,0.08641975308641976,110.27160493827162,0)" xlink:href="#X"/><use transform="matrix(0.08641975308641976,0,0,0.08641975308641976,127.55555555555557,0)" xlink:href="#T"/></g></defs></g></svg>